<svg xmlns="http://www.w3.org/2000/svg" xmlns:xlink="http://www.w3.org/1999/xlink" id="Layer_1" viewBox="0 0 373.9 309.45"><defs><style>      .st0, .st1 {        fill: none;      }      .st2 {        fill: #3fad49;      }      .st3 {        fill: #234188;      }      .st4 {        fill: #231f20;      }      .st5 {        fill: #c98149;      }      .st6 {        fill: #046a37;      }      .st7 {        fill: #8e3422;      }      .st8 {        font-family: Avenir-Heavy, Avenir;        font-size: 29.83px;        font-weight: 800;      }      .st8, .st9 {        fill: #005496;      }      .st10 {        fill: #131718;      }      .st11 {        fill: #ae2223;      }      .st1 {        stroke: #c98149;        stroke-miterlimit: 3.86;        stroke-width: 1.06px;      }      .st12 {        letter-spacing: .18em;      }      .st13 {        letter-spacing: .18em;      }      .st14 {        fill: #f3a34c;      }      .st15 {        clip-path: url(#clippath-1);      }      .st16 {        clip-path: url(#clippath-3);      }      .st17 {        clip-path: url(#clippath-2);      }      .st18 {        fill: #cd5032;      }      .st19 {        fill: #fff;      }      .st20 {        fill: #0c9ed9;      }      .st21 {        letter-spacing: 0em;      }      .st22 {        fill: #273a26;      }      .st23 {        fill: #daaf2a;      }      .st24 {        fill: #fbc028;      }      .st25 {        fill: #0e9dd9;      }      .st26 {        fill: #108a49;      }      .st27 {        fill: #197;      }      .st28 {        letter-spacing: .09em;      }      .st29 {        fill: #cf2529;      }      .st30 {        fill: #c98040;      }      .st31 {        clip-path: url(#clippath);      }      .st32 {        fill: #876420;      }      .st33 {        fill: #9d8f8b;        fill-rule: evenodd;      }    </style><clipPath id="clippath"><rect class="st0" x="16.55" y="221.74" width="329.1" height="27.93"></rect></clipPath><clipPath id="clippath-1"><rect class="st0" x="16.55" y="221.74" width="329.1" height="27.93"></rect></clipPath><clipPath id="clippath-2"><rect class="st0" x="17.96" y="3.95" width="329.1" height="199.36"></rect></clipPath><clipPath id="clippath-3"><rect class="st0" x="17.96" y="3.95" width="329.1" height="199.36"></rect></clipPath></defs><path class="st20" d="M56.39,273.75s38.11-8.24,89.5-14.94c51.36-6.69,116.06-11.86,169.19-5.66l-.22,1.87c-52.9-6.16-117.41-1.03-168.72,5.67-51.3,6.69-89.35,14.91-89.35,14.91l-.4-1.84Z"></path><g class="st31"><path class="st2" d="M296.48,154.83c-.31.31-.16.77-.62.92-3.35-3.04-6.85-5.63-10.2-8.68-.16,0-.46,0-1.06.92-1.53-.31-1.53-2.13-2.6-2.44-1.06-1.82-3.19-3.96-5.79-4.42-6.99-.76-12.94,1.06-18.26,4.11-.3,2.28-3.2.46-3.96,2.44-.3,1.37.46,2.43,1.22,3.04,4.11,3.35,11.11,2.74,16.44,1.83.46,1.21-.76,2.89-.91,4.26-.3,3.2-1.68,5.94-1.68,9.13,3.65-.3,6.71-1.82,10.05-2.89,1.36-.91,2.89-2.28,4.27-2.9.14-2.89.3-5.78.91-9.74,3.66,4.41,7.93,7.46,11.57,11.57,0,8.98.3,19.18.3,29.23.16-.31.31-.61.46-.91.46-15.69,1.38-31.52,1.38-46.9-.77,4.27-1.52,7.61-1.52,11.42M280.48,149.96v.91c-.45,1.52-2.59.76-3.65.76.46-1.37,2.43-1.21,3.65-1.67M273.79,150.26c-.16-.91.46-1.98.6-2.89,1.82,0,3.8-.16,5.64.14-1.08,2.13-3.96,2.44-6.25,2.74M272.42,142.19c2.74-.3,5.33.46,7.16,2.29,0,.61.76,1.06.46,1.82h-4.58c-1.06-1.37-3.19-2.43-3.04-4.11M267.85,142.65c2.44-.76,3.66,1.98,4.72,3.5-2.58.3-5.63.3-7.31-1.83.14-1.22,1.82-.76,2.58-1.67M260.7,145.24c1.06-.3,1.98-.91,3.05-1.21.3,1.07,1.36,1.07,1.52,2.13v.3c-1.36-.15-5.17,1.37-4.57-1.22M258.56,149.81c-.6.3-.45,1.21-1.36.91-.6-.61-1.06-1.67-.3-2.28.91,0,2.13-.15,1.67,1.37M264.04,149.35c-.92,1.22-1.22,3.81-3.5,2.74-1.22-.15-1.37-1.52-.91-2.28.76-1.68,2.28-1.07,3.49-1.68.92-.45,1.22.61.92,1.22M270.59,151.18c-1.36.3-2.74.45-4.11.91-.62-.31-3.04.76-2.14-.91.62-1.37,2.44-2.44,3.04-3.8h5.33c0,1.36-1.52,2.74-2.13,3.8M271.35,163.81c-.3-.76.46-1.21.6-1.82,1.08.46,1.22.91,1.22,1.68-.6.3-1.22.14-1.82.14M273.64,158.94c-1.06.3-.92,1.67-1.98,1.98-.14-1.37-.3-2.74.62-3.35.91-.15,1.67,0,1.37,1.37M274.25,162.75c-.31-1.67-1.22-3.19.45-4.41h.76c.46,1.37.76,3.04,1.08,4.26-.62.3-1.52,0-2.28.15M272.42,156.35c-.46-1.37.76-2.13,1.22-3.2,1.06.46,5.33-1.06,2.9,1.67-.62,1.37-2.6,1.22-4.12,1.52M278.66,161.07c-.16.3-.62.15-.76.15-.46-2.58-2.58-6.24,1.22-7.61h.76c0,2.28,3.81,7.31-1.22,7.46M282.47,154.53c-1.06,0-.92-1.52-1.67-1.98.3-.77.45-2.13,1.67-1.37v3.35Z"></path><path class="st2" d="M59.32,152.24c-.3.3-.16.76-.6.91-3.36-3.04-6.85-5.63-10.21-8.67-.15,0-.46,0-1.06.91-1.52-.3-1.52-2.13-2.59-2.43-1.06-1.83-3.2-3.96-5.79-4.42-7.01-.76-12.95,1.07-18.28,4.11-.3,2.28-3.19.46-3.95,2.44-.3,1.37.46,2.43,1.22,3.04,4.11,3.35,11.11,2.74,16.44,1.83.45,1.22-.76,2.89-.92,4.26-.3,3.2-1.68,5.94-1.68,9.13,3.66-.3,6.7-1.83,10.05-2.89,1.38-.91,2.9-2.28,4.26-2.89.16-2.89.3-5.78.92-9.74,3.65,4.41,7.91,7.45,11.57,11.56,0,8.99.3,19.19.3,29.23.14-.3.3-.6.46-.91.45-15.68,1.36-31.52,1.36-46.89-.76,4.27-1.52,7.61-1.52,11.42M43.34,147.37v.91c-.46,1.52-2.6.76-3.66.76.46-1.37,2.44-1.21,3.66-1.67M36.64,147.67c-.14-.91.46-1.97.6-2.89,1.84,0,3.82-.15,5.64.15-1.06,2.13-3.96,2.44-6.24,2.74M35.27,139.6c2.74-.31,5.33.46,7.15,2.29,0,.61.76,1.06.46,1.82h-4.57c-1.07-1.37-3.2-2.43-3.04-4.11M30.7,140.06c2.43-.77,3.65,1.98,4.71,3.5-2.59.3-5.63.3-7.31-1.84.16-1.21,1.84-.76,2.6-1.67M23.54,142.64c1.08-.3,1.98-.92,3.04-1.22.31,1.08,1.38,1.08,1.52,2.14v.3c-1.36-.14-5.17,1.38-4.57-1.21M21.41,147.21c-.62.31-.46,1.22-1.38.91-.6-.6-1.06-1.67-.3-2.28.92,0,2.14-.15,1.68,1.36M26.9,146.76c-.92,1.21-1.22,3.81-3.5,2.74-1.22-.15-1.38-1.52-.92-2.28.76-1.67,2.28-1.06,3.5-1.67.92-.45,1.22.61.92,1.22M33.43,148.59c-1.37.3-2.73.45-4.11.91-.6-.3-3.04.76-2.13-.91.6-1.38,2.43-2.44,3.04-3.81h5.33c0,1.37-1.52,2.74-2.14,3.81M34.21,161.22c-.31-.76.45-1.21.61-1.83,1.06.46,1.22.92,1.22,1.68-.62.31-1.22.15-1.83.15M36.49,156.35c-1.08.3-.92,1.67-1.98,1.98-.16-1.37-.3-2.74.61-3.35.92-.15,1.68,0,1.38,1.37M37.1,160.15c-.3-1.67-1.22-3.2.46-4.42h.76c.46,1.37.76,3.04,1.06,4.26-.6.3-1.52,0-2.28.15M35.27,153.76c-.46-1.37.76-2.13,1.22-3.2,1.06.46,5.33-1.07,2.89,1.67-.6,1.37-2.58,1.21-4.11,1.52M41.5,158.48c-.15.3-.61.15-.76.15-.45-2.59-2.58-6.24,1.22-7.61h.76c0,2.28,3.8,7.31-1.22,7.46M45.32,151.93c-1.08,0-.92-1.52-1.68-1.98.3-.76.46-2.13,1.68-1.36v3.35Z"></path><path class="st9" d="M75.23,76.78l-7.15-3.48-6.49,7.04,4.01,6.91-3.32,3.61-15.17-27.31,3.5-3.8,28.45,12.88-3.83,4.16ZM55.46,66.9c-2.05-1.01-3.15-1.85-3.15-1.85l-.06.06s.92,1.03,2.08,3.02l5.51,9.41,5.38-5.83-9.75-4.81Z"></path><path class="st9" d="M88.9,65.29c-5.33,4.32-11.17,3.4-15.81-2.32-4.78-5.89-4.42-12.01.27-15.81,1-.82,1.99-1.45,2.98-1.87l-6.81-8.4,4.08-3.31,20.52,25.3c-.79,1.98-2.43,4.13-5.23,6.41M78.12,47.5c-.7.3-1.35.71-1.99,1.23-3.55,2.88-2.28,6.9.81,10.71,3.31,4.08,6.79,5.7,9.94,3.15.97-.79,1.56-1.43,1.78-2.11l-10.53-12.99Z"></path><path class="st9" d="M106.42,53.12c-5.58,3.33-10.93.49-14.45-5.39-3.54-5.96-3.47-11.97,2.13-15.31,5.63-3.35,10.92-.53,14.47,5.43,3.5,5.88,3.44,11.94-2.15,15.27M95.79,35.27c-3.18,1.9-1.63,5.94.64,9.75,2.26,3.78,5.05,6.88,8.17,5.03,3.21-1.92,1.72-5.79-.53-9.57-2.27-3.81-5.05-7.12-8.27-5.21"></path><path class="st9" d="M125.99,43.2c-1.23.51-2.57.86-3.41.88l3.55,8.75-4.83,1.96-11.77-28.95c1.28-1.54,3.39-3.19,6.83-4.59,6.27-2.55,11.71-.06,14.5,6.81,2.85,7.03.76,12.85-4.87,15.14M117.43,24.21c-1.08.44-1.76.91-2.33,1.46l6.33,15.57c.66.01,1.43-.16,2.31-.52,3.83-1.56,4.49-5.32,2.36-10.55-2.09-5.15-4.7-7.57-8.66-5.97"></path><path class="st9" d="M146.31,36.53c-4.42,1.18-6.96-1.32-7.79-4.44l-3.56-13.37-2.5.66-.86-3.24,2.5-.66-1.33-4.96,4.7-2.77,1.7,6.37,3.66-.98.87,3.25-3.66.98,3.49,13.12c.47,1.75,1.49,2.72,3.24,2.26.46-.12.77-.3,1.15-.53l.85,3.17c-.4.33-1.24.82-2.45,1.15"></path><rect class="st9" x="148.41" y="17.98" width="10.51" height="4.01" transform="translate(-1.19 25.74) rotate(-9.54)"></rect><path class="st9" d="M173.31,32.88c-6.33.28-9.58-2.16-9.78-6.64-.28-6.11,5.54-8.14,12.58-9.14l-.06-1.25c-.13-3.01-2.07-3.74-4.77-3.62-2.24.1-4.36.93-5.75,1.68l-1.34-2.96c1.47-.8,4.23-1.96,7.89-2.12,4.77-.21,8.65,1.64,8.93,7.62l.64,14.38c-1.81,1.07-4.71,1.89-8.32,2.05M176.21,19.6c-4.92.83-7.92,2.04-7.74,6.26.13,3.01,2.01,4.22,5.06,4.08,1.21-.05,2.36-.36,3.1-.79l-.42-9.56Z"></path><polygon class="st9" points="186.88 19.89 187.19 15.89 197.68 16.74 197.35 20.73 186.88 19.89"></polygon><path class="st9" d="M206.37,35.28c-3.45-.7-5.48-1.77-6.85-3.1l2.08-3.49c.87.88,2.38,1.89,4.58,2.33,2.88.58,5.01-.83,5.56-3.53.45-2.2-.55-3.8-3.53-5.82-4.34-2.94-4.96-6.32-4.4-9.15.93-4.61,5.07-7.86,10.44-6.77,2.91.59,4.92,1.74,6.04,2.93l-1.85,3.06c-.89-.84-2.35-1.84-4.22-2.22-2.66-.54-4.52.8-5.04,3.38-.51,2.54,1.11,4.09,3.43,5.66,5.21,3.56,5.41,6.95,4.84,9.73-1.04,5.15-5.68,8.08-11.09,6.99"></path><path class="st9" d="M227.22,40.97c-5.03-1.7-7.26-7.16-4.8-14.42,2.49-7.3,7.7-10.03,12.59-8.37,2.69.92,4.01,2.28,4.59,3.25l-2.02,2.45c-.45-.7-1.2-1.45-2.62-1.94-3.38-1.15-5.85,1.42-7.49,6.23-1.65,4.86-1.04,8.53,2.03,9.57,1.34.46,2.42.37,3.31.04l.1,3.45c-1.17.51-3.04.65-5.69-.26"></path><path class="st9" d="M247.17,49.32l7.33-14.6c.93-1.85.91-3.92-1.9-5.34-1.28-.64-2.39-.91-3.75-.82l-8.66,17.26-4.7-2.36,15.17-30.24,4.7,2.36-5.19,10.36c1.97.02,3.6.41,5.18,1.21,5.24,2.63,5.5,6.61,3.9,9.82l-7.39,14.71-4.7-2.36Z"></path><path class="st9" d="M262.69,59.46c-5.33-3.75-4.92-9.79-.98-15.39,4-5.67,9.52-8.05,14.85-4.31,5.35,3.77,4.94,9.75.94,15.42-3.95,5.6-9.5,8.02-14.81,4.28M274.65,42.48c-3.03-2.13-6.09.94-8.65,4.56-2.53,3.59-4.22,7.41-1.26,9.49,3.07,2.16,5.99-.79,8.52-4.38,2.56-3.63,4.45-7.51,1.39-9.68"></path><path class="st9" d="M279.81,73.42c-4.75-4.45-3.5-10.38,1.18-15.37,4.75-5.06,10.55-6.65,15.29-2.2,4.78,4.47,3.54,10.34-1.21,15.4-4.69,5-10.52,6.62-15.27,2.17M294.01,58.27c-2.69-2.53-6.15.08-9.18,3.32-3.01,3.21-5.22,6.75-2.57,9.23,2.73,2.57,6.04.05,9.05-3.16,3.03-3.24,5.45-6.82,2.71-9.39"></path><rect class="st9" x="287.39" y="71.22" width="33.83" height="5.25" transform="translate(26.53 218.4) rotate(-41.13)"></rect><path class="st25" d="M261.18,174.69c1.87-.17,3.58-.17,4.08,1.87-1.37,1.19.85,2.38-1.37,3.07-.34,1.19,1.03.51,1.53,1.19,2.22-.34,3.58.51,5.45.85-.34,2.21.68,3.75.86,5.62-1.2.34-1.71-.35-2.39-.51,0-.85.86-2.55,0-3.4-.51-.18-.85-.86-1.53-.51-.85,1.7.69,2.39.52,4.08,0,1.54.34,3.24,1.36,4.26,1.86.68,3.06-.17,4.42-.85-.17,1.02,1.03.51,1.53.68h.51c.34,1.36,1.2,2.22.85,4.09-.51.17-.68,1.19-1.52.85.17-1.37-.17-3.24-2.38-2.55-.86.51-1.87.85-2.73,1.19-1.2,0-2.9.51-2.72-1.02-.86-.68-1.36-1.87-2.39-2.55-2.04.17-5.45-.85-5.79,1.53-.51,1.7-1.53,3.41-2.9,4.6,0,.85-1.02.34-1.54.34-1.37-1.19-2.89-1.87-3.39-3.57,1.86-1.03.68,1.7,2.55.68,1.2-.17,1.53-1.36,2.04-2.38.51-1.19,2.04-1.7,2.04-3.23,1.2-1.36,5.79,1.19,4.94-2.22-2.73.17-4.08-1.36-5.96-1.87,0-1.02.68-1.36,1.01-2.04,1.36-.68.69,1.2,1.2,1.36.85.34,2.04.34,2.89,0-1.35-.51.86-5.45-2.21-3.07-1.35-1.02-.84-2.38-1.53-3.91,1.53-1.02-1.18-2.72.86-3.41,1.18-.34.67.68,1.7.85"></path><polygon class="st1" points="123.08 131.01 173.56 99.16 224.18 130.79 224.18 191.12 185.23 191.12 185.23 147.7 162.25 147.7 162.25 190.68 123.08 190.68 123.08 131.01"></polygon><path class="st30" d="M173.56,99.19l-50.46,31.83v59.62h39.14v-42.94h.41v-.16c7.61,0,15.37-.14,22.82.15.14,5.64.14,11.26.14,16.88-.13.1-.26.21-.4.32v26.19h38.92v-60.29l-50.58-31.61Z"></path><rect class="st7" x="123.13" y="195.76" width="101.11" height="3.65"></rect><path class="st3" d="M185.62,164.58c1.06,0,.3-1.22.76-1.67.76.61,1.52-.45,2.44.15.6.46.3,1.83,0,2.13-1.82.16-1.38,1.98-3.35,2.74-2.28.61-2.44,2.89-4.42,2.28.16-.92-.6-1.06-1.06-1.52-1.05-.46-.3,1.07-1.05,1.07-.46.76-1.68,1.67-.92,3.04,1.21,1.06-.16,4.41,1.21,5.47,0,2.12.16,4.56-.14,6.54-.3,1.53-.14,3.19-.14,4.87.6.76,2.43.31,1.81,1.98h-4.41c.16-.3-.14-.91.16-1.06-.3-.6,0-2.28-.3-3.19-.6-2.74.45-6.69-.92-8.82-.14-.91.46-2.43-.6-2.58-.3,4.72-1.52,9.58-.3,14.3.46.45,1.82.15,1.22,1.36-1.84-.15-3.5,1.07-4.72-.15-1.06-7.76.6-15.06,0-23.11,1.22-1.37.6-3.95,1.83-5.32-.76-.3-1.83-.3-2.27.16-2.14-.61-3.66-1.68-6.09-1.83-.14-1.68-.76.3-1.82-.31.14-.45-.61-.45-.3-1.06,0-.31-.16-.76.3-.76v-1.06c.91.3,1.82.61,2.73,1.06,1.38-.61,3.05.91,4.72,1.06.3-.15,1.06.62.9-.15,1.83,0,2.89-.6,4.27-1.36,1.06,1.36.91-.91,2.28-.31.14-1.21-.31-2.89.45-3.8,0-1.06,1.36-.76,1.68-1.67.76,0,1.97-.15,2.43.31,1.52,1.06,1.22,2.28.6,3.49-.14.61.31,1.67-.75,1.37.45,1.21-.92,1.37-1.22,1.82.3.61.3,1.67,1.06,1.82-.16,1.06-.46,3.5.16,4.71,1.06.91.91-.91,1.97-.45.62-.46,1.22-1.06,1.83-1.52"></path><path class="st2" d="M224.4,166.71c.62.6.3,1.21.76,1.67.15,0,.3,0,.46-.15,0-.91.91-.14,1.06.15,0,.77.3,1.98-.3,2.28.76-.15,1.97.3,1.52,1.52-.31,1.36-3.96,0-2.28,2.13,0,2.12-.16,4.4,1.52,5.16.14.76.91.91,1.36,1.22,1.36,1.06,1.82,2.43,2.43,4.1-1.82-.76-1.82,1.07-2.73,1.37-.3.76.45.6.6,1.22.6,0,.76,1.06,1.22,1.52.91.61,2.13,1.07,1.82,2.43-.3.3-1.08.3-.76,1.07-.92.15-1.22.6-2.12.45-1.06-.45,1.21-3.49-1.06-3.65-.76-.76-1.52-1.67-3.5-2.13-.6-.15-1.06-.31-1.68-.46,0-.45-.45-.45-.75-.45-1.07.16-.77,1.36-1.83,1.67.46,1.06-.91.15-.91.91-.6.61-1.06,1.06-.91,2.28-1.38,1.06-1.68-.46-3.04-.31,0-.75-.92-.61-.92-1.36.76-.46,1.06.61,1.82,0,2.28.45,1.22-2.74,2.89-3.2-1.67-3.04,1.83-3.96,2.13-6.38-1.06-.15-1.52-1.83-3.03-1.22-.3-.91-2.58.45-1.98-1.21-.3-1.67,1.22-.92,1.98-1.37-.16,2.43,2.59,1.52,3.95,2.28.6-.76-.3-1.52-.46-2.28-.14-.76,0-1.67.76-1.83.92-2.28-2.58,0-1.67-2.13-.16-.91-.46-1.67-1.07-1.82-.75-1.06.92-.92.92-1.67,0-.31.46-.16.6-.16.31-1.52,2.6-.15,3.2-1.67"></path><path class="st29" d="M243.56,169.45c.76,1.67-1.52.6-.76,2.13-.3.16-1.06-.3-1.06.46.92,1.06.92,2.89,1.36,4.4-.14-.14-.14,0-.3.16,0,.15,0,.46.16.46.6-.62.76-1.68,1.97-1.83,1.06.91,1.22,2.13,1.22,3.65-.3,0-.46.14-.46.45,0,1.06,1.06.91,1.67,1.37.92-.31.92.75,1.68.61.31,1.06-.9.3-1.36.6-.76.76-2.28,1.06-1.98,2.74,2.74-.61,4.11,1.68,6.23.91.3,1.67-.46,2.43-.3,3.96-1.98.46-.76-2.44-2.43-2.89-2.89.31-5.01-.45-6.39-2.28-.92.6-2.13.45-2.59,1.52.3,2.74-2.28,3.5-1.82,6.24-1.52,0-3.04,1.67-3.95,0-.46-1.21.76-.61,1.21-.76,2.6-2.43,2.74-6.69,3.2-10.8-2.13-1.06-2.28,2.89-4.11.91.46-.6.3-2.43,1.67-1.36,1.06-1.37,3.2-1.21,3.05-3.5-.46-.76-1.37-.76-1.06-1.97.92-.76-.3-1.82.46-2.74-.3-.45-.76-.15-1.22-.3-.6-.76-.76-2.28-.6-3.65.14-.3.91-.3.6-1.07,3.49-1.21,3.65,1.98,5.93,2.59"></path><path class="st5" d="M173.76,137.82c-2.57-1.82-4.86-4.1-6.69-6.69,1.84-1.21,4.12-1.98,6.69-2.13v8.82Z"></path><path class="st5" d="M166.46,132.2c2.14,2.58,5.01,4.56,6.85,7.3h-9.74c.16-2.58.62-5.17,1.82-7.3h1.06Z"></path><path class="st5" d="M208.28,190.74c-3.36.16-6.69.16-10.04.31.16-.61-.16-1.22.16-1.52,1.06-.15.3-1.98.76-2.89,0-.75,1.36.15.91-.9,1.68-2.89,1.21,1.36,2.89,1.06.46,2.13,4.11,1.07,4.87,2.89.15.45.3.76.46,1.06"></path><path class="st5" d="M224.4,187.09c-.16,1.21-.16,2.43-.16,3.65-1.67.45-3.95.16-5.92.31-.16-1.22.3-1.67.91-2.28,0-.76,1.36.15.91-.91,1.06-.31.76-1.52,1.83-1.67.3,0,.75,0,.75.45.62.15,1.07.31,1.68.46"></path><path class="st7" d="M171.47,82.01c-.6-.15-1.21-.15-1.81-.3.6.15,1.21.15,1.81.3"></path><path class="st7" d="M168.14,82.01c-.76-.15-.46-.6-.46-.91l.46.91Z"></path><rect class="st19" x="197.41" y="152.04" width="17" height="20.43"></rect><rect class="st19" x="132.98" y="152.47" width="17" height="20.42"></rect><path class="st24" d="M199.61,173.71c-.14.3-.3.61-.45,1.06-.76.15-.31,1.52.45,1.22.3.61,1.52,0,1.22,1.07,1.21.91,1.98,2.13,1.82,4.1,1.52,0,0,2.28,1.21,2.13.47.15.16.45.31.76,1.37.31,0,2.74,2.27,1.83.3.6,1.52,0,1.38,1.06,2.13-.76,1.37,1.67,2.13,2.43v1.67c-.92.15-1.67.6-1.67-.31-.16-.3-.31-.61-.46-1.06-.76-1.82-4.41-.76-4.87-2.89-1.68.31-1.21-3.95-2.89-1.06.46,1.06-.91.15-.91.91-.46.91.3,2.74-.76,2.89-.32.3,0,.91-.16,1.52-1.38.3-2.59-.15-4.11-.31-.76-.76.46-.76.6-1.21,2.6.46.62-3.19,1.68-4.26-.16-1.67,1.83-1.22,2.43-2.28.46-1.37-.91-1.52-.91-2.43-.46.31-1.38.16-1.38.91-.3.61-1.67.46-2.13,0-.9-.91-2.28-1.06-3.79-1.21,0-.76-.31-1.82.45-1.97,1.06.15,1.68,1.06,2.44,1.37,3.49,1.52,2.12-2.43,3.95-3.04-.62-.3-1.22-.76-2.28-.61-.14-.45-.3-.76-.46-1.22,0-.31-.14-.45-.3-.76-1.64-3.45,5.35-5.05,5.17-.3"></path><path class="st7" d="M112.86,123.79v6.73c8.37-4.87,54.08-33.39,61.08-37.8.76-.76-.34-5.03-.18-6.09-2.28.45-47.21,28.79-60.9,37.16"></path><path class="st7" d="M234.46,123.79v6.73c-8.36-4.87-53.43-32.75-60.42-37.16-.76-.76-.3-5.67-.46-6.73,2.28.45,47.2,28.79,60.88,37.16"></path><path class="st32" d="M116.62,107.84c-.79.79-1.84,1.32-1.3,2.63.52,1.32,1.04,2.63,1.57,3.68-1.57.53-3.94-.79-4.2,1.06-1.58.52.78,4.2-1.84,3.67.52-1.58-.8-1.84-1.32-2.63-.79.79-.79,2.63-2.37,2.63-1.32-1.84,2.37-3.67-.79-3.94-.27-3.15,3.15-2.37,3.15-4.99,1.57-2.63,4.47-2.36,7.09-3.15v1.05Z"></path><path class="st32" d="M230.27,86.96c1.85-.53,6.05-.53,3.94,2.36-1.57-.53-1.83.53-2.62,1.05,1.05,2.63-1.84,2.63-2.1,4.2-3.68-4.73-4.2,3.15-8.14,2.1-1.32.79-1.05,2.37-2.9,2.37,1.05-1.32-.52-4.73,1.85-4.99.25-1.31-1.32-1.05-1.85-1.05-2.62-.26.8-1.57.27-2.63,1.32.53,1.32-.78,2.1-1.05-1.05-3.16,2.9-1.58,3.15-3.94,2.37,0,3.94,2.63,6.31,1.58"></path><path class="st18" d="M160.78,58.94c1.05.26,2.09,1.31,2.89,2.36-4.99-.78,1.57,6.05-3.15,3.42-1.84,0-1.84,2.1-2.63,3.15-.79.26-.79,1.05-1.84.79.53-2.37-3.68-1.84-1.32-4.2-1.05-.79-2.1,0-3.15-.53.53-.79.53-3.41.53-4.2.79-.79,1.05-1.84,2.62-1.31.79,1.05,2.63.27,3.68,1.31,1.57.52.78-1.58,2.37-.79"></path><path class="st11" d="M149.51,141.46c-.92.18-1.84-.18-2.57.18.56,2.02,3.13,2.21,2.77,4.79-1.29-.55-2.59-.92-3.87-1.47-.74,1.47,1.1,6.62-1.47,4.41-.74-1.29-1.65-2.39-1.47-4.41-.92.55-1.1,1.84-1.65,2.75-1.1.18-.74,1.65-2.02,2.02-.92-2.2.92-3.68.36-6.25-.74-.37-1.65-.19-2.57-.19.38-3.31,3.68-2.76,5.88-4.05,2.77-.18,5.52,0,6.62,2.21"></path><path class="st23" d="M240.21,106.85c0,.79-.53,1.58.25,2.1,1.58.52,1.32,2.63,2.11,3.94,0,1.31-3.42,1.31-1.32,2.89,0,3.16-2.1,3.68-3.94,4.99-.8-1.31-3.95.53-3.17-2.36-2.09.53-.25-2.11-1.57-2.37.79-2.89.79-6.04,2.1-8.41,2.63,1.05,3.15-4.99,4.47-.79h1.05Z"></path><path class="st33" d="M149.32,162.31h-7.31v-8.76h7.31v8.76ZM141.15,162.31h-7.3v-8.76h7.3v8.76ZM141.15,172.05h-7.3v-8.76h7.3v8.76ZM149.34,172.05h-7.3v-8.76h7.3v8.76ZM213.76,161.88h-7.31v-8.76h7.31v8.76ZM205.6,161.88h-7.31v-8.76h7.31v8.76ZM205.6,171.61h-7.31v-8.76h7.31v8.76ZM213.79,171.61h-7.3v-8.76h7.3v8.76Z"></path><path class="st6" d="M137.26,84.61c3.15-.79,6.3,0,8.41,1.84-.27,1.58-2.1,1.05-3.15,1.58-.79-.27-.79-.79-1.83-.53,1.57,2.63-.8,4.99-.27,8.15-1.84.52-.53-1.84-2.89-1.84-.27-.52-.8-1.32-1.06-1.84-3.41.79-1.31,6.31-4.99,6.83-.25,1.31-1.57,2.63-2.89,2.89.27-1.84-.52-4.46.79-5.78-3.94-1.31-4.2,4.2-7.88,3.68,2.1-3.42,4.46-6.3,7.09-9.2-.52-1.05-4.2.79-2.37-1.58,2.9-2.36,6.84-3.15,11.04-4.2"></path><path class="st24" d="M183.8,129.24c1.26,1.26,3.78.63,3.78,2.95-.42.84-2.31,0-3.15.63,0,2.1,2.32,2.31,1.47,5.04-2.1-.42-3.15-1.89-4.83-2.73-.22,1.89-.42,3.57-1.69,4.2-.63-1.9-.83-4.42-2.31-5.68,0,1.26-1.05,1.48-2.31,1.69.21-2.32.63-4.63,3.15-5.47,0-1.26,2.73-.42,2.52-2.31,1.26.42,6.51-1.26,3.36,1.68"></path><path class="st30" d="M209.97,66.44c-.53.79-2.37,0-3.42.79,0,1.84,0,3.41-.52,5-1.58,0-2.12-2.11-3.42-2.11-1.32,2.89-3.15,5.26-5.52,7.1.27-1.32-.53-3.68.79-4.46-1.32-.27-2.37.26-3.15,1.31.52,1.84-1.57.53-2.1,1.32-.52-2.11,1.84-2.37,2.1-4.2,1.83.52.78-1.58,1.83-2.11-.25-.26-.78-.26-1.05-.26,1.58-3.41,6.32-3.95,9.72-4.47,1.58.79,3.69.79,4.74,2.1"></path><path class="st14" d="M178.7,68.44c-1.85.27-1.85,2.1-2.63,3.16.79,1.58,3.15,0,3.94,1.31.53.79,1.85.79,1.85,2.36-2.37-.52-2.9,1.84-4.74,1.58-3.15,1.32,1.32,4.2,1.05,7.1,1.05.26,0,2.1.79,2.89-1.57.79-1.3-1.32-3.15-.53-3.15.78-2.1-4.47-4.72-2.63,1.57,3.42,0,7.36-.79,10.51-2.1,0-.53-2.62-1.32-3.68-1.58-1.31,0-4.73-2.37-5.51-.79.52-1.05,1.58-2.37,1.58-1.32-3.95,2.1-4.73,1.84-7.88,1.06-1.32,3.42-1.58,2.11-3.94,1.83.52.25-1.57,1.57-1.84,2.37-2.63,5.26-3.42,7.62-5.52,1.05-.26,1.57,0,1.32,1.05"></path><path class="st26" d="M199.32,105.89c1.32,1.58,5.39-.53,5.39,2.23.65,0,.92.53,1.18.92.27.66-.4.66-.53.92.93,1.05.66,2.76,1.32,3.94-.65.13-1.7,0-1.7-.79-.13-.13-.27-.13-.4-.13-.4.79,1.32,2.63-.4,2.89-.25.13-.12.53-.12.92-1.58.13-1.97-1.97-3.15-2.49.13-1.44-.53-2.1-.8-3.15-1.17-.39-1.44.65-2.62.26,0-1.7-.66-2.63,0-4.2-.66-.52-1.71-.39-1.58-1.44.53-.4.4-1.84,1.85-1.31.25.91,1.3.79,1.57,1.44"></path><path class="st25" d="M55.92,273.86s38.09-8.28,89.44-15.01c51.33-6.72,115.98-11.91,169.09-5.69l-.22,1.88c-52.86-6.19-117.33-1.03-168.61,5.69-51.27,6.72-89.3,14.98-89.3,14.98l-.4-1.85Z"></path><path class="st32" d="M66.33,153.15c-.76-5.48-.46-10.96-.62-16.44h.76c-.3,5.64.77,11.26-.14,16.44"></path><path class="st32" d="M64.95,200.5h-2.28c.3-20.56.62-41.11,1.06-61.81-.3-.76.77-.76,1.22-.61v62.42Z"></path><path class="st32" d="M58.72,200.19c.76-2.43.3-5.64.45-8.07-.14-.45-.3-1.07-.45-1.52.14-.6.14-1.37.3-1.98.14-.3.3-.6.46-.91.45-15.68,1.37-31.52,1.37-46.89v-.76c.46,0,.92-.91,1.22,0-.3,19.94,0,40.19-.3,60.14-.46.91-1.83.31-3.04,0"></path><path class="st32" d="M79.01,142.52c-3.14,3.41-4.7,4.55-7.05,3.98,1.57-3.41,3.14-3.41,7.05-3.98"></path><path class="st32" d="M49.27,146.3c2.9,3.2,6.85,5.79,9.45,9.14.3,1.06-.31,1.98-1.08.91-2.89-3.04-6.23-5.48-9.28-8.52.15-.62-.31-2.13.91-1.53"></path><path class="st32" d="M71.5,146.91c-1.61,4.32-2.4,7.78-4.22,9.08-1.2-5.18,2.21-4.75,2.82-9.08h1.4Z"></path><path class="st32" d="M66.33,160.15c.6,6.09.3,11.72,1.06,17.2v5.79c-.46,6.09.3,11.57.3,17.05-.6-.46-1.22.61-1.67-.31.3-12.93-.31-25.57-.16-38.51.16-.46.3-.76.46-1.22"></path><path class="st6" d="M78.51,184.82c-.46-.3-.3-.91.16-1.37,0,.46,0,.91-.16,1.37"></path><path class="st10" d="M57.8,110.83c-.16-.46-.6-.91-.76-1.36,1.06-2.13-.16-4.12-.3-6.1-1.52-3.5-5.64-4.72-9.45-4.57,0,2.43-.76,5.18,0,7.61.16,2.13,2.6,2.59,3.66,3.96.92.31,1.67.92,3.04.92-1.06-1.22-2.28-2.29-2.28-3.35-1.52-.3-3.2-.91-3.35-2.74-.76-2.29,1.97-.46,3.19-.92,1.06.76,1.22,1.98,1.98,3.05-.46.14-1.06.3-1.52.6.46.76,1.52.76,2.44.61.46,1.06,1.21,1.82.46,3.19,0,.76.91.76,1.36,1.22,1.82,1.22,1.68-1.06,1.52-2.13M48.37,102.91c-.92-2.28,1.67-1.82,1.97-.3,0,1.22-1.21,0-1.97.3M53.08,103.06c-.91,0-1.67-1.22-2.13-1.98.46-1.22,1.98.15,2.58.76-.14.46.3,1.22-.46,1.22M54.76,104.44c1.36.45,1.22,2.74,1.52,3.96-1.36-1.37-2.14-2.59-1.52-3.96"></path><path class="st27" d="M78.35,184.97c-.3,5.18-.6,10.5-.91,15.68h-7.16c-.61-4.26,1.53-7.46,2.44-11.27.6,0,.46.92.46,1.38-.31.91.92,1.06.92,1.67-.16.46-.31.77-.46,1.07.15,1.22-.46,3.2.46,3.5,1.06-1.98,1.82-4.11,1.97-6.4.61-.15.31-.76.46-1.22.61-1.52,1.22-2.89,1.83-4.41"></path><path class="st27" d="M78.51,184.82l-.16.16.16-.16Z"></path><path class="st27" d="M43.34,189.54c1.52.61,2.59,1.82,3.35,3.04,1.82,1.83,2.89,4.41,5.02,6.09.61-.76-.46-1.82,0-2.89-.16-1.36-1.52-3.04-.16-3.81,1.68,2.74,3.04,5.33,3.96,8.53-3.96,1.06-8.83,0-12.94.91h-2.74c-.46-1.22-2.28-1.83-1.98-3.35,1.22-.15,1.68,1.07,2.89,1.22.46-1.52-.3-2.89,0-4.41.16-.45.62-.15.92,0,.76.76,1.22,2.28,2.14,3.04,1.21-1.21,0-3.04-.31-4.57.31-1.22-.14-1.37-.14-1.83v-1.98Z"></path><path class="st22" d="M104.08,133.51c-.91-.16-1.82-.3-2.74-.46-1.21-.91-2.13.46-3.49,0-.46.3-.76.46-1.22.76h-1.06c-2.28,1.52-4.88,2.28-6.1,4.72,1.84.31,3.04,1.98,4.72,2.59,4.87,1.68,10.51.46,14.32-2.59,0-2.43-2.44-3.96-4.42-5.02M92.82,138.53c-.31-.3-.31-.76.14-1.06,0-.46.16-.91.16-1.21.91-.31,1.68-.92,3.35-1.22-.91,1.82-1.82,1.67-2.44,2.43.62.15,1.22.3,1.84.61.6.61,1.67,1.21,1.67,2.13-1.67.31-3.8-.3-4.71-1.67M97.99,135.03c.92-.77,2.14-1.07,3.35-.91-.14.61-.3,1.21-.6,1.82-.92,0-2.74.31-2.74-.91M99.81,140.21c-1.06-.14-1.21-1.37-1.52-2.13,1.38,0,2.44-.91,3.96-.61.92.31.3,1.68,1.52,1.22-.3,1.52-2.58,1.21-3.96,1.52M103.17,136.4c-.76.31-.76-.6-.76-1.06,0-1.67,1.98-.76,2.58-.3.9,1.67-1.38.45-1.82,1.36"></path><path class="st22" d="M48.05,133.21c.16.91-.3,1.52-.91,2.12-.46-.3-.62-.76-.76-1.21v-1.83c-.3-1.21-1.52-1.98-2.74-2.28-.62,1.37-1.82,2.59-1.82,4.11-.32,3.96,1.82,7.16,5.33,8.68.46-.46,1.22-1.08,1.06-1.83.6-1.82,1.37-3.5,1.98-5.33,1.22-1.38-.92-1.07-2.14-2.43M43.94,131.84c.76.61,1.68,1.67,1.38,3.04-.77.31-1.22-.3-1.98-.14-.16-1.07,0-2.13.6-2.89M44.86,139.29c-.46-1.06-1.84-1.83-1.22-3.35.91-.15,1.68.45,1.98.91-.46.92,1.21,3.2-.76,2.43M48.37,137.62c0,.76-.46,1.22-1.08,1.53-.14-.92-.76-2.75,1.52-3.2-.14.61-.3,1.22-.45,1.67"></path><path class="st27" d="M56.42,193.04c.92.92.46,1.83.92,2.59,0,1.52.46,3.04,1.06,4.57-.14.76-.76.46-1.21.46-.92-2.28-1.53-5.02-.77-7.62"></path><path class="st27" d="M83.07,195.78c.3,1.22.16,3.2.16,4.72-1.38.15-3.5.45-4.57-.16.91-2.58,1.97-5.48,3.81-7.31.45.77-.16,1.98.6,2.74"></path><path class="st27" d="M88.25,196.7c-.92.91,0,2.43-.76,3.5-.92-.16-1.68.91-2.9.46.3-1.98,1.98-3.96,3.04-5.64,1.06-.15.3,1.07.62,1.68"></path><path class="st10" d="M39.68,133.51c.16-.76-1.21-.76-.3-1.22-.91-3.5-2.28-8.07-6.71-9.59h-1.67c-1.06-1.06-2.9-.91-4.57-.91.14.76.14,1.53.14,2.28-.3.61,0,1.21-.14,1.83,1.06,6.09,7.61,9.44,12.64,11.27,2.13.15-.16-2.29.6-3.65M34.65,126.81c1.68-.3,1.84,1.37,2.44,2.28.3,1.07-.92,1.38-1.38.31-.45-.75-1.37-1.36-1.06-2.58M31.47,123.61c1.36-.46,1.52.92,2.28,1.07,0,.46.15.91-.16,1.22-1.52-.92-2.28-1.37-2.12-2.29M27.5,123.15c1.22-.45,1.68,1.07,2.44,1.38,0,1.06-1.52.15-1.84,1.06-.45-.45-.76-.91-1.06-1.52l.46-.92ZM28.42,127.27c0-.3-.46-.61-.31-1.06,1.38.15,3.04-.46,3.66.45-.46,1.07-2.14.46-3.35.61M29.33,128.95c1.68-.16,3.96-.91,5.18.6.76,1.68-1.38.61-1.98.92-.92-.92-3.5.61-3.2-1.52M36.94,134.88c-1.22-.76-2.43-1.21-3.65-1.83-.16-.3-.76-.76-.3-1.06,2.28-.31,4.25.15,5.03,2.43.46.91-.77.31-1.08.45"></path><path class="st22" d="M78.2,140.37c-.16.14-.16.3-.3.45.14-.15.14-.31.3-.45"></path><path class="st2" d="M101.04,149.19c-.46-.6-.91-1.07-1.36-1.67-.46-1.37-1.22-2.59-2.14-3.04-1.22-1.98-3.96-2.28-6.09-3.2h-1.67c0,.91.76.61,1.21,1.36-.91.31-1.52.92-2.58.61-1.67-.3-3.19-1.36-4.57-2.13.6-.76,1.52,0,2.28,0h3.2c-.62-1.37-3.05-1.06-3.66-2.43,2.14-.76,4.12-2.13,5.94-3.81,2.74-3.35,5.48-6.39,5.48-10.96h-2.14c-.3.15-.76.46-1.06.61-2.59-1.38-4.87.3-7.01,1.21-.46.46-.91,1.07-1.36,1.52-.46.31-.76.77-1.22,1.07.46,0,.76,0,1.52-.76.92.15,1.22-.31,1.83-.31.46,2.89-2.13,3.2-3.81,5.49-.15-.15-.3-.31-.46-.46v-3.04c-.46-.16-.6.46-1.22.15-1.97,1.83-2.58,4.26-3.8,6.4-.14,1.52-.14,3.04-.14,4.57,2.74.6,2.58,3.95,4.71,5.48,3.66,5.48,9.59,5.94,15.38,5.94,1.07-.76,4.12-.16,2.74-2.59M96.63,146.3c1.06-.45,1.82.31,1.82,1.37-1.22-.76-2.44-.46-1.82-1.37M95.86,144.47c.15,1.06-1.06,1.06-1.68,1.37-1.06-.15-2.28-1.07-2.89-1.83,1.52-.61,3.35-.91,4.57.46M95.25,125.9c.76.91-.45,1.52-.3,2.43-.76.15-1.52.45-2.44.31-.3-1.53,1.84-1.99,2.74-2.74M89.32,126.35c.91-.76,1.67-.91,2.74-1.37h1.37c-1.37,1.83-2.59,2.74-3.96,3.2-.3-.46-.14-1.22-.14-1.83M89.78,129.86c1.21.3,4.57-1.07,3.5,1.22-.92,2.28-3.66.91-5.49,1.21-.62-1.37,1.52-1.21,1.98-2.43M85.81,133.51c1.52,0,3.05-.16,4.41.15,0,.91-1.06,1.67-1.82,1.98-1.36,0-2.74.15-4.11-.16,0-.91,1.06-1.36,1.52-1.97M79.73,137.32c-1.22-2.28,4.57-8.98,2.59-1.83-1.36,0-.92,2.13-2.59,1.83M81.25,139.29c-.3-.91.6-1.67.9-2.59,1.08.15,2.44-.31,3.36.46-.92,1.37-2.74,1.98-4.26,2.13M84.75,145.85c-1.06-.92-2.44-1.99-1.84-3.5.92.46,1.84.76,2.6,1.67-.3.61.6,2.28-.76,1.83M88.4,148.73c-2.28-.3-1.22-2.74-1.52-4.26,1.22-.31,1.98.45,2.74.61-.16,1.21,1.36,5.48-1.22,3.65M92.36,150.25c-2.58.31-1.06-2.58-1.68-3.96,2.14-.31,3.04,1.53,3.66,3.04.76,1.68-1.22.61-1.98.91M98.61,150.1c-1.08,0-3.04.76-3.04-1.06,0-1.21,1.67-.31,2.28,0,.14.45.91.3.76,1.06"></path><path class="st2" d="M88.56,112.96c-.76.15-1.52.46-2.14.61-.45-.15-1.06-.15-1.82.15-2.13-.3-3.65.46-5.33.76-.6.3-1.06.76-1.68,1.07-1.21.14-2.28.76-2.89,1.21-1.98.61-2.89,4.57-4.42,1.83.31-2.74-.9-5.03-1.21-7.47.14-1.67-1.22-2.43-1.38-3.96-.76-1.52-1.22-3.8-3.04-4.26-3.5,2.29-3.5,6.25-5.17,9.29-.92,2.28-1.07,4.87-1.98,7-.62,0-.46-.76-.76-.91-1.08-3.2-4.12-4.87-6.85-6.7-.76-.15-1.52-.3-2.28-.46h-1.38c.46.31.92.46,1.38.77.91.3,1.67.76,2.43,1.06,1.52,1.37.3,3.35.3,5.03h-.45c-1.07-2.43-3.8-4.11-3.8-6.86-.46-.76-1.22-.91-1.84-1.06-.61.61-.61,1.67-.61,2.74-.61,6.09.3,11.42,4.41,16.14,2.74,3.35,6.4,4.57,10.51,4.57,4.27-2.74,7.61,1.82,12.03.45,8.07-.15,12.64-7.15,15.52-13.25.3-.76.46-1.52.62-2.28.91-1.37,1.52-2.89,2.43-4.11-.15-.46.62-1.83-.6-1.37M81.39,117.06c.46-1.83,1.22-2.43,3.2-2.59.3.15.62.15,1.06.3-1.36,1.22-2.58,2.28-3.8,3.5-.9.15-.46-.91-.46-1.22M75.16,117.52c.91-.15,1.52-1.07,2.43-1.22.62-.15,1.07-.3,1.68-.45.76,0,1.36,0,1.06.91-1.06,2.28-2.58,5.49-5.48,6.25-.14-1.68-.6-4.11.32-5.48M72.92,126.58c.39-.31.81-.6,1.17-.83,1.34.19,2.62.51,3.93.83M72.26,120.72c-.3-.76.46-.3.76-.45-.6,1.98,2.28,4.87-1.06,5.48-1.82.46-1.06-1.97-1.68-3.04.62-.6.76-1.68,1.98-1.98M52.17,115.24c1.52.15,2.43,1.52,3.19,2.74-.15,1.82-1.22,3.2-1.37,5.03-1.68.31-1.52-1.68-2.74-2.29.62-1.82.46-3.8.92-5.48M45.16,114.33c1.52.3,1.98,2.59,2.74,3.96-1.08.61-1.82-.46-2.74-.3-.62-1.07-.62-2.74,0-3.65M45.62,119.81c1.52-.15,2.74.76,4.26.61.45,1.52,2.43,1.98,2.28,3.65-1.98.15-4.27,0-6.09-.46-.46-1.21-.92-2.59-.46-3.81M54.83,126.58c1.74,2.59-3.08,2.12-4.49,2.82-.9-.9-1.8-1.8-2.33-2.82-.18-.36-.33-.74-.4-1.14,2.43-.46,4.27.6,6.69.46.22.24.4.46.53.67M53.08,131.08c.46-1.07,1.84-1.53,2.74-2.43,1.38.14,2.74,1.82,3.35,3.2-1.97.3-4.41.45-6.09-.76M59.66,126.58c.35.78.59,1.92.72,2.82-.14.46-.6.15-.91,0-.82-.89-2.34-1.75-3.33-2.82-.86-.92-1.34-2.01-.63-3.42.3-.6-.16-3.35,1.52-1.98.46,1.83,1.68,3.35,2.44,5.02.06.12.12.24.18.37M62.97,125.9c-2.28-1.83-4.71-4.57-3.49-8.23,1.36.15,2.13,1.68,3.19,2.43.3,1.68.76,3.96.3,5.79M62.83,118.13c-1.52-1.07-3.81-2.89-2.44-5.03,1.98-1.98,1.84,1.98,3.2,2.44-.3.91.6,2.74-.76,2.58M63.59,112.2c-.92.46-1.22-.46-1.68-.91-.3-1.82.46-3.35,1.22-4.88h.76c-.3,1.83,0,3.96-.3,5.79M64.65,112.96c.3-2.13.6-4.26.76-6.4,1.84.91,2.44,3.2,2.28,5.33,0,1.21-1.52,1.67-2.58,2.13-.76.45-.76-.61-.46-1.07M64.65,115.55c1.22-.77,2.9-2.44,3.96-1.22v2.43c-1.36.46-2.14,2.13-3.66,2.59.16-1.37-.91-2.59-.3-3.8M67.44,126.58c-.31.79-.67,1.57-1.11,2.37-.92.45-.62,1.52-1.68,1.36.25-1.15.17-2.44.05-3.73-.31-3.49-.94-7.03,3.61-8.14h.91c-.35,3.02-.79,5.6-1.78,8.14M69.67,125.44v1.82c-.3.61-.92.61-1.52.77,0-.46.09-1,.27-1.46.24-.63.65-1.13,1.26-1.13M74.24,131.68c-2.43.46-5.33,1.53-7.77.31.46-1.22,1.52-1.83,2.14-2.74,2.43.15,4.41.76,6.85.91.46.92-.62,1.07-1.22,1.52M78.02,126.58c.76.18,1.52.37,2.31.54.16,1.22-1.67,1.37-2.43,2.28-1.98-.45-4.12-.61-6.09-1.21,0-.56.51-1.12,1.11-1.61M83.23,124.07c-1.22,4.26-4.88.61-7.31.46.14-1.52,1.82-1.52,2.58-2.74,1.68.46,6.09-.61,4.72,2.28M85.97,118.44c-.46.76-.76,1.67-1.22,2.44-1.22-.46-3.36,0-3.5-1.07,1.82-1.21,3.34-3.04,5.33-3.65.6.76-.6,1.37-.6,2.28"></path><path class="st22" d="M77.74,99.41c-.3.76-1.37,0-1.68,1.52,1.06.91.92,2.14,1.38,3.05-.31.3-.62.76-.92.76,0-1.22-1.06-2.13-.46-3.81h-.14c-5.02,2.74-5.33,8.23-4.72,13.1,1.36.3,2.44-.31,3.65-.31.46-.46.92-.91,1.22-1.22-.6,0-1.37,0-2.13.16-1.82-2.89,5.17-3.35,2.13-.16,1.38-.3,2.44-1.97,2.74-3.19.16-.45.16-.76.3-1.22.92,0,.46-1.06,1.22-1.06,0-.61-.15-1.22-.15-1.68.91-1.06,1.06-2.43,1.37-3.65,2.44-3.5-2.28-1.68-3.81-2.28M72.42,110.98c-.6-.61-.3-2.13-.16-3.04.92-.15.6.76.92,1.22,0,.76.14,1.82-.76,1.82M74.84,107.93c-.3-.15-.45.31-.75.15-.16-1.52-.46-3.5.14-4.72,1.38.76.76,3.04.6,4.57M77.74,109c-.76-.3-1.22.31-1.98.16-.46-.91.92-1.07.76-1.83.76-.61,1.82.14,2.14.76l-.92.91ZM79.42,105.34c-.62.77-.92.77-1.22.77-.46-.46-.3-1.22.3-1.53.6,0,1.22,0,.92.76"></path><path class="st32" d="M303.47,155.75c-.76-5.48-.46-10.96-.6-16.45h.76c-.3,5.64.76,11.27-.16,16.45"></path><path class="st32" d="M302.11,203.09h-2.28c.3-20.55.6-41.11,1.06-61.81-.3-.76.76-.76,1.22-.61v62.42Z"></path><path class="st32" d="M295.86,202.79c.76-2.44.3-5.64.46-8.07-.16-.46-.3-1.07-.46-1.53.16-.6.16-1.37.3-1.98.16-.31.31-.61.46-.91.46-15.69,1.38-31.52,1.38-46.9v-.76c.45,0,.91-.91,1.21,0-.3,19.95,0,40.2-.3,60.14-.46.91-1.82.3-3.04,0"></path><path class="st32" d="M316.16,145.12c-3.13,3.41-4.7,4.55-7.04,3.98,1.56-3.42,3.13-3.42,7.04-3.98"></path><path class="st32" d="M286.43,148.9c2.89,3.2,6.85,5.78,9.43,9.13.3,1.07-.3,1.98-1.06.91-2.9-3.05-6.24-5.48-9.29-8.52.16-.61-.3-2.13.92-1.52"></path><path class="st32" d="M308.66,149.51c-1.61,4.32-2.41,7.78-4.22,9.07-1.21-5.18,2.21-4.75,2.8-9.07h1.41Z"></path><path class="st32" d="M303.47,162.75c.62,6.09.31,11.72,1.06,17.2v5.79c-.45,6.09.32,11.57.32,17.05-.62-.46-1.22.6-1.68-.31.3-12.94-.3-25.57-.16-38.52.16-.46.31-.76.46-1.22"></path><path class="st6" d="M315.66,187.41c-.46-.31-.31-.92.15-1.37,0,.45,0,.91-.15,1.37"></path><path class="st10" d="M294.95,113.42c-.14-.46-.6-.92-.75-1.37,1.06-2.13-.16-4.11-.31-6.1-1.52-3.5-5.63-4.72-9.43-4.57,0,2.43-.76,5.17,0,7.62.16,2.13,2.58,2.58,3.65,3.96.92.3,1.68.91,3.06.91-1.07-1.22-2.29-2.28-2.29-3.35-1.52-.3-3.19-.91-3.35-2.74-.76-2.29,1.98-.45,3.2-.91,1.06.76,1.22,1.98,1.98,3.05-.46.15-1.06.3-1.52.6.46.77,1.52.77,2.43.61.46,1.07,1.22,1.83.46,3.2,0,.76.92.76,1.38,1.22,1.82,1.21,1.67-1.07,1.51-2.13M285.51,105.5c-.91-2.28,1.68-1.82,1.98-.3,0,1.22-1.22,0-1.98.3M290.23,105.65c-.92,0-1.68-1.22-2.14-1.98.46-1.22,1.98.15,2.6.76-.16.46.3,1.22-.46,1.22M291.9,107.03c1.38.46,1.22,2.74,1.53,3.96-1.38-1.36-2.14-2.59-1.53-3.96"></path><path class="st27" d="M315.51,187.56c-.3,5.18-.62,10.5-.92,15.68h-7.15c-.6-4.26,1.52-7.46,2.44-11.27.6,0,.46.92.46,1.37-.32.91.9,1.06.9,1.67-.16.46-.3.76-.46,1.07.16,1.21-.45,3.2.46,3.5,1.06-1.99,1.83-4.11,1.98-6.4.6-.15.3-.76.46-1.22.6-1.52,1.21-2.89,1.82-4.42"></path><path class="st27" d="M315.66,187.41l-.16.15.16-.15Z"></path><path class="st27" d="M280.48,192.13c1.52.61,2.59,1.83,3.36,3.04,1.82,1.83,2.89,4.42,5.01,6.09.62-.75-.45-1.82,0-2.89-.14-1.36-1.52-3.04-.14-3.8,1.67,2.74,3.04,5.33,3.95,8.53-3.95,1.07-8.82,0-12.94.91h-2.74c-.45-1.21-2.28-1.83-1.97-3.35,1.21-.14,1.67,1.07,2.89,1.22.46-1.52-.3-2.89,0-4.41.15-.45.6-.15.92,0,.76.77,1.22,2.28,2.13,3.05,1.22-1.22,0-3.05-.3-4.57.3-1.21-.16-1.37-.16-1.83v-1.98Z"></path><path class="st22" d="M341.24,136.1c-.92-.15-1.83-.3-2.74-.45-1.22-.91-2.12.45-3.5,0-.46.3-.76.45-1.22.76h-1.06c-2.28,1.53-4.87,2.29-6.09,4.72,1.82.3,3.04,1.98,4.72,2.59,4.87,1.67,10.5.45,14.3-2.59,0-2.43-2.43-3.96-4.41-5.02M329.97,141.13c-.3-.31-.3-.77.16-1.07,0-.45.15-.91.15-1.21.92-.31,1.68-.91,3.36-1.22-.92,1.83-1.84,1.67-2.44,2.43.6.16,1.22.3,1.82.61.62.61,1.68,1.22,1.68,2.13-1.68.3-3.8-.31-4.72-1.67M335.15,137.63c.91-.76,2.13-1.06,3.35-.91-.16.61-.3,1.22-.6,1.82-.92,0-2.74.31-2.74-.91M336.97,142.8c-1.06-.15-1.22-1.37-1.52-2.13,1.37,0,2.44-.91,3.96-.61.91.31.3,1.68,1.52,1.22-.32,1.52-2.6,1.21-3.96,1.52M340.32,139c-.76.3-.76-.61-.76-1.06,0-1.67,1.98-.77,2.6-.31.91,1.67-1.38.46-1.84,1.37"></path><path class="st22" d="M285.21,135.8c.16.91-.3,1.52-.92,2.13-.45-.31-.6-.77-.76-1.22v-1.83c-.3-1.21-1.52-1.97-2.73-2.28-.62,1.36-1.84,2.58-1.84,4.11-.3,3.96,1.84,7.16,5.33,8.68.46-.46,1.22-1.07,1.07-1.83.6-1.82,1.36-3.5,1.97-5.33,1.22-1.37-.91-1.07-2.13-2.43M281.1,134.43c.76.61,1.67,1.67,1.36,3.04-.76.3-1.22-.31-1.98-.15-.14-1.07,0-2.13.62-2.89M282.01,141.89c-.46-1.07-1.83-1.83-1.21-3.35.91-.15,1.67.46,1.97.92-.46.91,1.22,3.19-.76,2.43M285.51,140.22c0,.76-.46,1.21-1.06,1.52-.16-.92-.76-2.74,1.52-3.2-.16.61-.3,1.22-.46,1.68"></path><path class="st27" d="M293.58,195.63c.92.91.46,1.82.92,2.59,0,1.51.45,3.04,1.06,4.57-.16.76-.76.45-1.22.45-.91-2.28-1.52-5.02-.76-7.61"></path><path class="st27" d="M320.23,198.37c.3,1.23.15,3.2.15,4.72-1.36.15-3.5.46-4.57-.16.92-2.59,1.98-5.48,3.81-7.3.46.76-.14,1.97.62,2.74"></path><path class="st27" d="M325.4,199.29c-.92.91,0,2.44-.76,3.5-.91-.16-1.67.91-2.89.45.3-1.98,1.98-3.96,3.04-5.63,1.06-.15.3,1.07.6,1.68"></path><path class="st10" d="M276.84,136.1c.14-.76-1.22-.76-.3-1.22-.92-3.5-2.28-8.06-6.7-9.59h-1.68c-1.06-1.06-2.89-.91-4.57-.91.16.76.16,1.53.16,2.28-.3.62,0,1.22-.16,1.83,1.08,6.09,7.61,9.44,12.64,11.26,2.14.15-.15-2.28.62-3.65M271.81,129.4c1.68-.3,1.82,1.37,2.44,2.28.3,1.06-.92,1.37-1.38.31-.46-.76-1.36-1.37-1.06-2.59M268.61,126.2c1.38-.45,1.52.92,2.28,1.07,0,.45.16.91-.15,1.21-1.52-.91-2.28-1.37-2.14-2.29M264.66,125.75c1.21-.46,1.67,1.07,2.43,1.37,0,1.07-1.52.16-1.82,1.07-.46-.46-.76-.91-1.06-1.53l.46-.91ZM265.57,129.86c0-.31-.46-.61-.3-1.07,1.36.15,3.04-.46,3.65.46-.45,1.07-2.13.46-3.35.61M266.48,131.54c1.67-.15,3.96-.91,5.17.61.76,1.67-1.36.6-1.97.91-.92-.91-3.5.61-3.2-1.52M274.09,137.47c-1.22-.76-2.44-1.22-3.65-1.82-.16-.31-.76-.77-.32-1.07,2.28-.31,4.26.16,5.03,2.43.46.92-.76.31-1.06.46"></path><path class="st22" d="M315.35,142.96c-.15.14-.15.3-.3.45.16-.15.16-.31.3-.45"></path><path class="st2" d="M338.19,151.78c-.46-.6-.92-1.06-1.38-1.67-.45-1.37-1.22-2.59-2.13-3.04-1.22-1.97-3.96-2.28-6.09-3.19h-1.68c0,.91.76.61,1.22,1.36-.92.31-1.52.92-2.59.62-1.68-.31-3.2-1.37-4.57-2.13.6-.76,1.52,0,2.28,0h3.19c-.6-1.37-3.04-1.07-3.65-2.44,2.13-.76,4.11-2.13,5.95-3.81,2.73-3.35,5.47-6.4,5.47-10.96h-2.12c-.32.15-.76.46-1.06.61-2.6-1.37-4.88.3-7.01,1.21-.46.46-.92,1.07-1.38,1.53-.46.3-.76.76-1.21,1.07.45,0,.75,0,1.52-.77.91.16,1.21-.3,1.83-.3.46,2.89-2.14,3.2-3.8,5.48-.16-.15-.32-.3-.46-.46v-3.04c-.46-.15-.62.46-1.22.16-1.98,1.82-2.59,4.26-3.81,6.39-.16,1.52-.16,3.04-.16,4.57,2.74.6,2.6,3.96,4.72,5.48,3.66,5.48,9.59,5.94,15.38,5.94,1.06-.76,4.11-.15,2.74-2.59M333.77,148.9c1.08-.46,1.82.3,1.82,1.37-1.21-.76-2.43-.45-1.82-1.37M333.01,147.07c.16,1.06-1.06,1.06-1.67,1.37-1.07-.15-2.28-1.06-2.9-1.83,1.52-.61,3.35-.91,4.57.46M332.41,128.49c.76.91-.46,1.52-.3,2.44-.76.15-1.52.45-2.44.3-.3-1.52,1.82-1.98,2.74-2.74M326.46,128.95c.92-.75,1.68-.91,2.74-1.36h1.38c-1.38,1.82-2.6,2.74-3.96,3.2-.3-.45-.16-1.22-.16-1.83M326.92,132.45c1.22.3,4.57-1.06,3.5,1.22-.92,2.28-3.65.91-5.48,1.21-.6-1.37,1.52-1.21,1.98-2.43M322.97,136.1c1.51,0,3.03-.15,4.41.16,0,.91-1.06,1.67-1.82,1.98-1.38,0-2.74.15-4.11-.15,0-.92,1.06-1.37,1.52-1.98M316.87,139.91c-1.21-2.28,4.58-8.98,2.6-1.82-1.38,0-.92,2.13-2.6,1.82M318.39,141.89c-.3-.92.62-1.67.92-2.59,1.06.16,2.44-.3,3.35.46-.91,1.37-2.74,1.98-4.26,2.13M321.9,148.44c-1.06-.92-2.43-1.98-1.82-3.5.92.46,1.82.76,2.58,1.67-.3.61.62,2.29-.76,1.83M325.56,151.33c-2.28-.31-1.22-2.74-1.52-4.26,1.22-.3,1.97.45,2.74.61-.16,1.22,1.36,5.48-1.22,3.65M329.51,152.85c-2.59.3-1.06-2.59-1.67-3.96,2.13-.31,3.04,1.52,3.65,3.05.76,1.67-1.22.61-1.98.91M335.75,152.7c-1.06,0-3.04.76-3.04-1.07,0-1.21,1.68-.3,2.28,0,.16.46.92.31.76,1.07"></path><path class="st2" d="M325.7,115.55c-.76.14-1.52.45-2.13.6-.46-.15-1.06-.15-1.83.15-2.14-.3-3.66.46-5.34.77-.6.3-1.06.76-1.67,1.06-1.22.15-2.28.76-2.9,1.21-1.97.61-2.89,4.57-4.41,1.83.3-2.74-.92-5.03-1.22-7.46.16-1.67-1.22-2.43-1.36-3.96-.76-1.52-1.22-3.81-3.05-4.27-3.5,2.29-3.5,6.25-5.18,9.29-.9,2.29-1.06,4.87-1.98,7-.6,0-.45-.76-.76-.91-1.06-3.2-4.11-4.88-6.85-6.7l-2.28-.45h-1.36c.46.3.91.45,1.36.76.92.3,1.68.76,2.44,1.07,1.52,1.36.3,3.35.3,5.02h-.46c-1.06-2.43-3.8-4.11-3.8-6.85-.46-.76-1.22-.91-1.82-1.07-.6.61-.6,1.68-.6,2.74-.62,6.09.3,11.42,4.41,16.14,2.74,3.35,6.39,4.57,10.51,4.57,4.25-2.74,7.61,1.83,12.02.46,8.07-.16,12.64-7.16,15.53-13.25.3-.76.46-1.52.61-2.28.92-1.37,1.52-2.89,2.44-4.11-.16-.45.6-1.83-.62-1.36M318.55,119.66c.46-1.83,1.22-2.44,3.2-2.59.3.14.6.14,1.06.3-1.36,1.21-2.58,2.28-3.8,3.5-.92.15-.46-.92-.46-1.22M312.3,120.12c.92-.15,1.52-1.06,2.44-1.21.6-.15,1.06-.31,1.67-.46.77,0,1.38,0,1.08.91-1.08,2.28-2.6,5.48-5.48,6.24-.16-1.68-.6-4.11.3-5.48M310.07,129.17c.39-.31.82-.59,1.17-.83,1.35.19,2.64.51,3.94.83M309.42,123.31c-.3-.76.46-.3.76-.45-.62,1.98,2.28,4.87-1.06,5.48-1.84.46-1.08-1.98-1.68-3.05.6-.6.76-1.67,1.98-1.98M289.32,117.83c1.52.15,2.44,1.52,3.2,2.74-.16,1.82-1.22,3.2-1.37,5.02-1.68.31-1.52-1.68-2.74-2.29.6-1.82.45-3.8.91-5.48M282.31,116.92c1.53.3,1.98,2.59,2.74,3.96-1.06.6-1.82-.46-2.74-.31-.6-1.06-.6-2.74,0-3.65M282.77,122.4c1.52-.14,2.74.76,4.26.61.46,1.52,2.44,1.98,2.28,3.65-1.98.16-4.27,0-6.09-.46-.46-1.22-.92-2.59-.46-3.81M291.99,129.17c1.73,2.59-3.08,2.12-4.49,2.83-.89-.9-1.8-1.81-2.33-2.83-.19-.36-.33-.74-.41-1.14,2.44-.45,4.27.61,6.71.46.22.25.4.47.53.68M290.23,133.67c.46-1.06,1.82-1.52,2.74-2.43,1.36.15,2.74,1.82,3.35,3.2-1.98.31-4.42.45-6.09-.76M296.82,129.17c.35.78.59,1.91.72,2.83-.16.45-.62.15-.92,0-.81-.9-2.33-1.76-3.33-2.83-.86-.92-1.33-2.01-.63-3.42.32-.61-.14-3.35,1.53-1.98.45,1.83,1.67,3.35,2.43,5.02.07.12.13.24.19.38M300.13,128.49c-2.28-1.83-4.72-4.57-3.5-8.22,1.38.15,2.14,1.67,3.2,2.43.3,1.67.76,3.96.3,5.79M299.97,120.73c-1.52-1.06-3.81-2.89-2.43-5.03,1.98-1.97,1.82,1.98,3.19,2.44-.3.91.62,2.74-.76,2.59M300.73,114.79c-.91.46-1.21-.45-1.67-.91-.3-1.82.46-3.35,1.22-4.87h.76c-.31,1.82,0,3.96-.31,5.78M301.81,115.55c.3-2.13.6-4.26.76-6.4,1.82.91,2.43,3.2,2.28,5.33,0,1.21-1.52,1.67-2.59,2.13-.77.46-.77-.61-.46-1.06M301.81,118.14c1.21-.76,2.89-2.44,3.95-1.22v2.43c-1.37.46-2.13,2.13-3.65,2.59.16-1.37-.92-2.59-.3-3.81M304.58,129.17c-.3.78-.67,1.58-1.11,2.37-.91.46-.6,1.52-1.67,1.37.24-1.15.17-2.45.05-3.74-.33-3.49-.96-7.03,3.6-8.14h.92c-.35,3.01-.78,5.59-1.79,8.13M306.83,128.03v1.83c-.31.61-.92.61-1.52.76,0-.45.07-.99.25-1.46.24-.63.65-1.13,1.27-1.13M311.4,134.27c-2.44.46-5.33,1.53-7.77.31.46-1.22,1.52-1.83,2.13-2.74,2.44.16,4.42.77,6.86.91.45.92-.62,1.07-1.22,1.52M315.18,129.17c.76.18,1.52.37,2.31.54.15,1.22-1.68,1.37-2.44,2.28-1.98-.46-4.11-.61-6.09-1.22,0-.55.51-1.12,1.11-1.6M320.37,126.66c-1.21,4.27-4.87.62-7.31.46.16-1.52,1.82-1.52,2.6-2.74,1.67.46,6.09-.61,4.71,2.28M323.12,121.03c-.46.76-.76,1.67-1.22,2.43-1.22-.46-3.35,0-3.5-1.07,1.84-1.21,3.36-3.04,5.34-3.65.6.76-.62,1.37-.62,2.28"></path><path class="st22" d="M314.89,102c-.3.76-1.36,0-1.67,1.52,1.06.91.91,2.13,1.36,3.04-.3.31-.6.77-.91.77,0-1.23-1.06-2.14-.46-3.81h-.16c-5.03,2.74-5.33,8.22-4.71,13.09,1.36.3,2.43-.31,3.65-.31.46-.45.92-.91,1.22-1.22-.6,0-1.38,0-2.14.16-1.82-2.89,5.18-3.35,2.14-.16,1.36-.3,2.44-1.98,2.74-3.19.15-.45.15-.76.3-1.21.92,0,.46-1.06,1.22-1.06,0-.61-.16-1.23-.16-1.68.92-1.06,1.06-2.44,1.38-3.65,2.43-3.5-2.3-1.67-3.82-2.28M309.56,113.57c-.6-.61-.3-2.13-.15-3.04.92-.15.6.77.92,1.22,0,.76.14,1.82-.77,1.82M312,110.52c-.3-.15-.46.31-.76.16-.16-1.52-.46-3.5.16-4.72,1.36.76.76,3.05.6,4.57M314.89,111.59c-.76-.3-1.21.3-1.97.15-.46-.91.9-1.06.76-1.82.76-.61,1.82.15,2.13.76l-.92.91ZM316.57,107.94c-.6.76-.91.76-1.22.76-.45-.46-.3-1.21.31-1.52.6,0,1.21,0,.91.76"></path></g><g class="st15"><text class="st8" transform="translate(57.27 247.8)"><tspan class="st13" x="0" y="0">FOUND</tspan><tspan class="st28" x="136.76" y="0">A</tspan><tspan class="st13" x="160.92" y="0">T</tspan><tspan class="st12" x="183.42" y="0">IO</tspan><tspan class="st21" x="227.24" y="0">N</tspan></text></g><g class="st17"><path class="st2" d="M297.9,154.12c-.31.31-.16.77-.62.92-3.35-3.04-6.85-5.63-10.2-8.68-.16,0-.46,0-1.06.92-1.53-.31-1.53-2.13-2.6-2.44-1.06-1.82-3.19-3.96-5.79-4.42-6.99-.76-12.94,1.06-18.27,4.11-.3,2.28-3.2.46-3.96,2.44-.3,1.37.46,2.43,1.22,3.04,4.11,3.35,11.11,2.74,16.44,1.83.46,1.21-.76,2.89-.91,4.26-.3,3.2-1.68,5.94-1.68,9.13,3.65-.3,6.7-1.82,10.05-2.89,1.36-.91,2.89-2.28,4.27-2.9.14-2.89.3-5.78.91-9.74,3.66,4.41,7.93,7.46,11.57,11.57,0,8.98.3,19.18.3,29.23.16-.31.31-.61.46-.91.46-15.69,1.38-31.52,1.38-46.9-.77,4.27-1.52,7.61-1.52,11.42M281.9,149.25v.91c-.45,1.52-2.59.76-3.65.76.46-1.37,2.43-1.21,3.65-1.67M275.21,149.55c-.16-.91.46-1.98.6-2.89,1.82,0,3.8-.16,5.64.14-1.08,2.13-3.96,2.44-6.25,2.74M273.83,141.48c2.74-.3,5.33.46,7.16,2.29,0,.61.76,1.06.46,1.82h-4.58c-1.06-1.37-3.19-2.43-3.04-4.11M269.27,141.94c2.44-.76,3.66,1.98,4.72,3.5-2.58.3-5.63.3-7.31-1.83.14-1.22,1.82-.76,2.58-1.67M262.11,144.53c1.06-.3,1.98-.91,3.05-1.21.3,1.07,1.36,1.07,1.52,2.13v.3c-1.36-.15-5.17,1.37-4.57-1.22M259.98,149.1c-.6.3-.45,1.21-1.36.91-.6-.61-1.06-1.67-.3-2.28.91,0,2.13-.15,1.67,1.37M265.46,148.64c-.92,1.22-1.22,3.81-3.5,2.74-1.22-.15-1.37-1.52-.91-2.28.76-1.68,2.28-1.07,3.49-1.68.92-.45,1.22.61.92,1.22M272.01,150.47c-1.36.3-2.74.45-4.11.91-.62-.31-3.04.76-2.14-.91.62-1.37,2.44-2.44,3.04-3.8h5.33c0,1.36-1.52,2.74-2.13,3.8M272.77,163.1c-.3-.76.46-1.21.6-1.82,1.08.46,1.22.91,1.22,1.68-.6.3-1.22.14-1.82.14M275.05,158.23c-1.06.3-.92,1.67-1.98,1.98-.14-1.37-.3-2.74.62-3.35.91-.15,1.67,0,1.37,1.37M275.67,162.04c-.31-1.67-1.22-3.19.45-4.41h.76c.46,1.37.76,3.04,1.07,4.26-.62.3-1.52,0-2.28.15M273.83,155.64c-.46-1.37.76-2.13,1.22-3.2,1.06.46,5.33-1.06,2.9,1.67-.62,1.37-2.6,1.22-4.12,1.52M280.08,160.36c-.16.3-.62.15-.76.15-.46-2.58-2.58-6.24,1.22-7.61h.76c0,2.28,3.81,7.31-1.22,7.46M283.88,153.82c-1.06,0-.92-1.52-1.67-1.98.3-.77.45-2.13,1.67-1.37v3.35Z"></path><path class="st2" d="M60.74,151.53c-.3.3-.16.76-.6.91-3.36-3.04-6.85-5.63-10.21-8.67-.15,0-.46,0-1.06.91-1.52-.3-1.52-2.13-2.59-2.43-1.06-1.83-3.2-3.96-5.79-4.42-7.01-.76-12.95,1.07-18.28,4.11-.3,2.28-3.19.46-3.95,2.44-.3,1.37.46,2.43,1.22,3.04,4.11,3.35,11.11,2.74,16.44,1.83.45,1.22-.76,2.89-.92,4.26-.3,3.2-1.68,5.94-1.68,9.13,3.66-.3,6.7-1.83,10.05-2.89,1.38-.91,2.9-2.28,4.26-2.89.16-2.89.3-5.78.92-9.74,3.65,4.41,7.91,7.45,11.57,11.56,0,8.99.3,19.19.3,29.23.14-.3.3-.6.46-.91.45-15.68,1.36-31.52,1.36-46.89-.76,4.27-1.52,7.61-1.52,11.42M44.76,146.66v.91c-.46,1.52-2.6.76-3.66.76.46-1.37,2.44-1.21,3.66-1.67M38.05,146.96c-.14-.91.46-1.97.6-2.89,1.84,0,3.82-.15,5.64.15-1.06,2.13-3.96,2.44-6.24,2.74M36.69,138.89c2.74-.31,5.33.46,7.15,2.29,0,.61.76,1.06.46,1.82h-4.57c-1.07-1.37-3.2-2.43-3.04-4.11M32.12,139.35c2.43-.77,3.65,1.98,4.71,3.5-2.59.3-5.63.3-7.31-1.84.16-1.21,1.84-.76,2.6-1.67M24.96,141.94c1.08-.3,1.98-.92,3.04-1.22.31,1.08,1.38,1.08,1.52,2.14v.3c-1.36-.14-5.17,1.38-4.57-1.21M22.83,146.5c-.62.31-.46,1.22-1.38.91-.6-.6-1.06-1.67-.3-2.28.92,0,2.14-.15,1.68,1.36M28.32,146.05c-.92,1.21-1.22,3.81-3.5,2.74-1.22-.15-1.38-1.52-.92-2.28.76-1.67,2.28-1.06,3.5-1.67.92-.45,1.22.61.92,1.22M34.85,147.88c-1.37.3-2.73.45-4.11.91-.6-.3-3.04.76-2.13-.91.6-1.38,2.43-2.44,3.04-3.81h5.33c0,1.37-1.52,2.74-2.14,3.81M35.62,160.51c-.31-.76.45-1.21.61-1.83,1.06.46,1.22.92,1.22,1.68-.62.31-1.22.15-1.83.15M37.91,155.64c-1.08.3-.92,1.67-1.98,1.98-.16-1.37-.3-2.74.61-3.35.92-.15,1.68,0,1.38,1.37M38.51,159.45c-.3-1.67-1.22-3.2.46-4.42h.76c.46,1.37.76,3.04,1.06,4.26-.6.3-1.52,0-2.28.15M36.69,153.05c-.46-1.37.76-2.13,1.22-3.2,1.06.46,5.33-1.07,2.89,1.67-.6,1.37-2.58,1.21-4.11,1.52M42.92,157.77c-.15.3-.61.15-.76.15-.45-2.59-2.58-6.24,1.22-7.61h.76c0,2.28,3.8,7.31-1.22,7.46M46.74,151.23c-1.08,0-.92-1.52-1.68-1.98.3-.76.46-2.13,1.68-1.36v3.35Z"></path><path class="st9" d="M76.65,76.08l-7.15-3.48-6.49,7.04,4.01,6.91-3.32,3.61-15.17-27.31,3.5-3.8,28.45,12.88-3.83,4.16ZM56.87,66.19c-2.05-1.01-3.15-1.85-3.15-1.85l-.06.06s.92,1.03,2.08,3.02l5.51,9.41,5.38-5.83-9.75-4.81Z"></path><path class="st9" d="M90.31,64.58c-5.33,4.32-11.17,3.4-15.81-2.32-4.78-5.89-4.42-12.01.27-15.81,1-.82,1.99-1.45,2.98-1.87l-6.81-8.4,4.08-3.31,20.52,25.3c-.79,1.98-2.43,4.13-5.23,6.41M79.54,46.79c-.7.3-1.35.71-1.99,1.23-3.55,2.88-2.28,6.9.81,10.71,3.31,4.08,6.79,5.7,9.94,3.15.97-.79,1.56-1.43,1.78-2.11l-10.53-12.99Z"></path><path class="st9" d="M107.84,52.41c-5.58,3.33-10.93.49-14.45-5.39-3.54-5.96-3.47-11.97,2.13-15.31,5.63-3.35,10.92-.53,14.47,5.43,3.5,5.88,3.44,11.94-2.15,15.27M97.21,34.56c-3.18,1.9-1.63,5.94.64,9.75,2.26,3.78,5.05,6.88,8.17,5.03,3.21-1.92,1.72-5.79-.53-9.57-2.27-3.81-5.05-7.12-8.27-5.21"></path><path class="st9" d="M127.41,42.49c-1.23.51-2.57.86-3.41.88l3.55,8.75-4.83,1.96-11.77-28.95c1.28-1.54,3.39-3.19,6.83-4.59,6.27-2.55,11.71-.06,14.5,6.81,2.85,7.03.76,12.85-4.87,15.14M118.84,23.5c-1.08.44-1.76.91-2.33,1.46l6.33,15.57c.66.01,1.43-.16,2.31-.52,3.83-1.56,4.49-5.32,2.36-10.55-2.09-5.15-4.7-7.57-8.66-5.97"></path><path class="st9" d="M147.73,35.82c-4.42,1.18-6.96-1.32-7.79-4.44l-3.56-13.37-2.5.66-.86-3.24,2.5-.66-1.33-4.96,4.7-2.77,1.7,6.37,3.66-.98.87,3.25-3.66.98,3.49,13.12c.47,1.75,1.49,2.72,3.24,2.26.46-.12.77-.3,1.15-.53l.85,3.17c-.4.33-1.24.82-2.45,1.15"></path><rect class="st9" x="149.82" y="17.27" width="10.51" height="4.01" transform="translate(-1.05 25.97) rotate(-9.54)"></rect><path class="st9" d="M174.73,32.18c-6.33.28-9.58-2.16-9.78-6.64-.28-6.11,5.54-8.14,12.58-9.14l-.06-1.25c-.13-3.01-2.07-3.74-4.77-3.62-2.24.1-4.36.93-5.75,1.68l-1.34-2.96c1.47-.8,4.23-1.96,7.89-2.12,4.77-.21,8.65,1.64,8.93,7.62l.64,14.38c-1.81,1.07-4.71,1.89-8.32,2.05M177.63,18.89c-4.92.83-7.92,2.04-7.74,6.26.13,3.01,2.01,4.22,5.06,4.08,1.21-.05,2.36-.36,3.1-.79l-.42-9.56Z"></path><polygon class="st9" points="188.29 19.18 188.61 15.19 199.09 16.03 198.77 20.02 188.29 19.18"></polygon><path class="st9" d="M207.79,34.57c-3.45-.7-5.48-1.77-6.85-3.1l2.08-3.49c.87.88,2.38,1.89,4.58,2.33,2.88.58,5.01-.83,5.56-3.53.45-2.2-.55-3.8-3.53-5.82-4.34-2.94-4.96-6.32-4.4-9.15.93-4.61,5.07-7.86,10.44-6.77,2.91.59,4.92,1.74,6.04,2.93l-1.85,3.06c-.89-.84-2.35-1.84-4.22-2.22-2.66-.54-4.52.8-5.04,3.38-.51,2.54,1.11,4.09,3.43,5.66,5.21,3.56,5.41,6.95,4.84,9.73-1.04,5.15-5.68,8.08-11.09,6.99"></path><path class="st9" d="M228.64,40.26c-5.03-1.7-7.26-7.16-4.8-14.42,2.49-7.3,7.7-10.03,12.59-8.37,2.69.92,4.01,2.28,4.59,3.25l-2.02,2.45c-.45-.7-1.2-1.45-2.62-1.94-3.38-1.15-5.85,1.42-7.49,6.23-1.65,4.86-1.04,8.53,2.03,9.57,1.34.46,2.42.37,3.31.04l.1,3.45c-1.17.51-3.04.65-5.69-.26"></path><path class="st9" d="M248.59,48.61l7.33-14.6c.93-1.85.91-3.92-1.9-5.34-1.28-.64-2.39-.91-3.75-.82l-8.66,17.26-4.7-2.36,15.17-30.24,4.7,2.36-5.19,10.36c1.97.02,3.6.41,5.18,1.21,5.24,2.63,5.5,6.61,3.9,9.82l-7.39,14.71-4.7-2.36Z"></path><path class="st9" d="M264.11,58.75c-5.33-3.75-4.92-9.78-.98-15.39,4-5.67,9.52-8.05,14.85-4.31,5.35,3.77,4.94,9.75.94,15.42-3.95,5.6-9.49,8.02-14.81,4.28M276.07,41.77c-3.03-2.13-6.09.94-8.65,4.56-2.53,3.59-4.22,7.41-1.26,9.49,3.07,2.16,5.99-.79,8.52-4.38,2.56-3.63,4.45-7.51,1.39-9.68"></path><path class="st9" d="M281.23,72.71c-4.75-4.45-3.5-10.38,1.18-15.37,4.75-5.06,10.55-6.65,15.29-2.2,4.78,4.47,3.54,10.34-1.21,15.4-4.69,5-10.52,6.62-15.27,2.17M295.43,57.56c-2.69-2.53-6.15.08-9.18,3.32-3.01,3.21-5.22,6.75-2.57,9.23,2.73,2.57,6.04.05,9.05-3.16,3.03-3.24,5.45-6.82,2.71-9.39"></path><rect class="st9" x="288.8" y="70.51" width="33.83" height="5.25" transform="translate(27.35 219.16) rotate(-41.13)"></rect><path class="st25" d="M262.6,173.98c1.87-.17,3.58-.17,4.08,1.87-1.37,1.19.85,2.38-1.37,3.07-.34,1.19,1.03.51,1.53,1.19,2.22-.34,3.58.51,5.45.85-.34,2.21.68,3.75.86,5.62-1.2.34-1.71-.35-2.39-.51,0-.85.86-2.55,0-3.4-.51-.18-.85-.86-1.53-.51-.85,1.7.69,2.39.52,4.08,0,1.54.34,3.24,1.36,4.26,1.86.68,3.06-.17,4.42-.85-.17,1.02,1.03.51,1.53.68h.51c.34,1.36,1.2,2.22.85,4.09-.51.17-.68,1.19-1.52.85.17-1.37-.17-3.24-2.38-2.55-.86.51-1.87.85-2.73,1.19-1.2,0-2.9.51-2.72-1.02-.86-.68-1.36-1.87-2.39-2.55-2.04.17-5.45-.85-5.79,1.53-.51,1.7-1.53,3.41-2.9,4.6,0,.85-1.02.34-1.54.34-1.37-1.19-2.89-1.87-3.39-3.57,1.86-1.03.68,1.7,2.55.68,1.2-.17,1.53-1.36,2.04-2.38.51-1.19,2.04-1.7,2.04-3.23,1.2-1.36,5.79,1.19,4.94-2.22-2.73.17-4.08-1.36-5.96-1.87,0-1.02.68-1.36,1.01-2.04,1.36-.68.69,1.2,1.2,1.36.85.34,2.04.34,2.89,0-1.35-.51.86-5.45-2.21-3.07-1.35-1.02-.84-2.38-1.53-3.91,1.53-1.02-1.18-2.72.86-3.41,1.18-.34.67.68,1.7.85"></path><polygon class="st1" points="124.5 130.3 174.98 98.45 225.6 130.08 225.6 190.41 186.65 190.41 186.65 146.99 163.66 146.99 163.66 189.97 124.5 189.97 124.5 130.3"></polygon><path class="st30" d="M174.98,98.48l-50.46,31.83v59.62h39.14v-42.94h.41v-.16c7.61,0,15.37-.14,22.82.15.14,5.64.14,11.26.14,16.88-.13.1-.27.21-.4.32v26.19h38.92v-60.29l-50.58-31.61Z"></path><rect class="st7" x="124.55" y="195.05" width="101.11" height="3.65"></rect><path class="st3" d="M187.04,163.87c1.06,0,.3-1.22.76-1.67.76.61,1.52-.45,2.44.15.6.46.3,1.83,0,2.13-1.82.16-1.38,1.98-3.35,2.74-2.28.61-2.44,2.89-4.42,2.28.16-.92-.6-1.06-1.06-1.52-1.05-.46-.3,1.07-1.05,1.07-.46.76-1.68,1.67-.92,3.04,1.21,1.06-.16,4.41,1.21,5.47,0,2.12.16,4.56-.14,6.53-.3,1.53-.14,3.19-.14,4.87.6.76,2.43.31,1.81,1.98h-4.41c.16-.3-.15-.91.16-1.06-.3-.6,0-2.28-.3-3.19-.6-2.74.45-6.69-.92-8.82-.14-.91.46-2.43-.6-2.58-.3,4.72-1.52,9.58-.3,14.3.46.45,1.82.15,1.22,1.36-1.84-.15-3.5,1.07-4.72-.15-1.06-7.76.6-15.06,0-23.11,1.22-1.37.6-3.95,1.83-5.32-.76-.3-1.83-.3-2.27.16-2.14-.61-3.66-1.68-6.09-1.83-.14-1.68-.76.3-1.82-.31.15-.45-.6-.45-.3-1.06,0-.31-.16-.76.3-.76v-1.06c.91.3,1.82.61,2.73,1.06,1.38-.61,3.05.91,4.72,1.06.3-.15,1.06.62.9-.15,1.83,0,2.89-.6,4.27-1.36,1.06,1.36.91-.91,2.28-.31.14-1.21-.31-2.89.45-3.8,0-1.06,1.36-.76,1.68-1.67.76,0,1.97-.15,2.43.31,1.52,1.06,1.22,2.28.6,3.49-.14.61.31,1.67-.75,1.37.45,1.21-.92,1.37-1.22,1.82.3.61.3,1.67,1.06,1.82-.16,1.06-.46,3.5.16,4.71,1.06.91.91-.91,1.97-.45.62-.46,1.22-1.06,1.83-1.52"></path><path class="st2" d="M225.81,166.01c.62.6.3,1.21.76,1.67.15,0,.3,0,.46-.15,0-.91.91-.14,1.06.15,0,.77.3,1.98-.3,2.28.76-.15,1.97.3,1.52,1.52-.31,1.36-3.96,0-2.28,2.13,0,2.12-.16,4.4,1.52,5.16.14.76.91.91,1.36,1.22,1.36,1.06,1.82,2.43,2.43,4.1-1.82-.76-1.82,1.07-2.73,1.37-.3.76.45.6.6,1.22.6,0,.76,1.06,1.22,1.52.91.61,2.13,1.07,1.82,2.43-.3.3-1.08.3-.76,1.07-.92.14-1.22.6-2.12.45-1.06-.45,1.21-3.49-1.06-3.65-.76-.76-1.52-1.67-3.5-2.13-.6-.15-1.06-.31-1.68-.46,0-.45-.45-.45-.75-.45-1.07.16-.77,1.36-1.83,1.67.46,1.06-.91.15-.91.91-.6.61-1.06,1.06-.91,2.28-1.38,1.06-1.68-.46-3.04-.31,0-.75-.92-.61-.92-1.36.76-.46,1.06.61,1.82,0,2.28.45,1.22-2.74,2.89-3.2-1.67-3.04,1.83-3.96,2.13-6.38-1.06-.15-1.52-1.83-3.03-1.22-.3-.91-2.58.45-1.98-1.21-.3-1.67,1.22-.92,1.98-1.37-.16,2.43,2.59,1.52,3.95,2.28.6-.76-.3-1.52-.46-2.28-.14-.76,0-1.67.76-1.83.92-2.28-2.58,0-1.67-2.13-.16-.91-.46-1.67-1.08-1.82-.75-1.06.92-.92.92-1.67,0-.31.46-.16.6-.16.31-1.52,2.6-.15,3.2-1.67"></path><path class="st29" d="M244.97,168.74c.76,1.67-1.52.6-.76,2.13-.3.16-1.06-.3-1.06.46.92,1.06.92,2.89,1.36,4.4-.14-.14-.14,0-.3.16,0,.15,0,.46.16.46.6-.62.76-1.68,1.97-1.83,1.06.91,1.22,2.13,1.22,3.65-.3,0-.46.14-.46.45,0,1.06,1.06.91,1.67,1.37.92-.31.92.75,1.68.61.31,1.06-.91.3-1.36.6-.76.76-2.28,1.06-1.98,2.74,2.74-.61,4.11,1.68,6.23.91.3,1.67-.46,2.43-.3,3.96-1.98.46-.76-2.44-2.43-2.89-2.89.31-5.01-.45-6.39-2.28-.92.6-2.13.45-2.59,1.52.3,2.74-2.28,3.5-1.82,6.24-1.52,0-3.04,1.67-3.95,0-.46-1.21.76-.61,1.21-.76,2.6-2.43,2.74-6.69,3.2-10.8-2.13-1.06-2.28,2.89-4.11.91.46-.6.3-2.43,1.67-1.36,1.06-1.37,3.2-1.21,3.05-3.5-.46-.76-1.37-.76-1.06-1.97.92-.76-.3-1.82.46-2.74-.3-.45-.76-.15-1.22-.3-.6-.76-.76-2.28-.6-3.65.14-.3.91-.3.6-1.07,3.49-1.21,3.65,1.98,5.93,2.59"></path><path class="st5" d="M175.17,137.11c-2.57-1.82-4.86-4.1-6.69-6.69,1.84-1.21,4.12-1.98,6.69-2.13v8.82Z"></path><path class="st5" d="M167.88,131.49c2.14,2.58,5.01,4.56,6.85,7.3h-9.74c.16-2.58.62-5.17,1.82-7.3h1.06Z"></path><path class="st5" d="M209.7,190.03c-3.36.16-6.69.16-10.04.31.16-.61-.16-1.22.16-1.52,1.06-.15.3-1.98.76-2.89,0-.75,1.36.15.91-.9,1.68-2.89,1.21,1.36,2.89,1.06.46,2.13,4.11,1.07,4.87,2.89.15.45.3.76.46,1.06"></path><path class="st5" d="M225.81,186.38c-.16,1.21-.16,2.43-.16,3.65-1.67.45-3.95.16-5.92.31-.16-1.22.3-1.67.91-2.28,0-.76,1.36.15.91-.91,1.06-.31.76-1.52,1.83-1.67.3,0,.75,0,.75.45.62.15,1.07.31,1.68.46"></path><path class="st7" d="M172.89,81.31c-.6-.15-1.21-.15-1.81-.3.6.15,1.21.15,1.81.3"></path><path class="st7" d="M169.56,81.31c-.76-.15-.46-.6-.46-.91l.46.91Z"></path><rect class="st19" x="198.83" y="151.33" width="17" height="20.43"></rect><rect class="st19" x="134.39" y="151.76" width="17" height="20.42"></rect><path class="st24" d="M201.03,173c-.14.3-.3.61-.45,1.06-.76.15-.31,1.52.45,1.22.3.61,1.52,0,1.22,1.07,1.21.91,1.98,2.13,1.82,4.1,1.52,0,0,2.28,1.21,2.13.47.15.16.45.31.76,1.37.31,0,2.74,2.27,1.83.3.6,1.52,0,1.38,1.06,2.13-.76,1.37,1.67,2.13,2.43v1.67c-.92.15-1.67.6-1.67-.31-.16-.3-.31-.61-.46-1.06-.76-1.82-4.41-.76-4.87-2.89-1.68.31-1.21-3.95-2.89-1.06.46,1.06-.91.15-.91.91-.46.91.3,2.74-.76,2.89-.32.3,0,.91-.16,1.52-1.38.3-2.59-.15-4.11-.31-.76-.76.46-.76.6-1.21,2.6.46.62-3.19,1.68-4.26-.16-1.67,1.83-1.22,2.43-2.28.46-1.37-.91-1.52-.91-2.43-.46.31-1.38.16-1.38.91-.3.61-1.67.46-2.13,0-.9-.91-2.28-1.06-3.79-1.21,0-.76-.31-1.82.45-1.97,1.06.15,1.68,1.06,2.44,1.37,3.49,1.52,2.12-2.43,3.95-3.04-.62-.3-1.22-.76-2.28-.61-.14-.45-.3-.76-.46-1.22,0-.31-.14-.45-.3-.76-1.64-3.45,5.35-5.05,5.17-.3"></path><path class="st7" d="M114.28,123.09v6.73c8.37-4.87,54.08-33.39,61.08-37.8.76-.76-.34-5.03-.18-6.09-2.28.45-47.21,28.79-60.9,37.16"></path><path class="st7" d="M235.88,123.09v6.73c-8.36-4.87-53.43-32.75-60.42-37.16-.76-.76-.3-5.67-.46-6.73,2.28.45,47.2,28.79,60.88,37.16"></path><path class="st32" d="M118.04,107.13c-.79.79-1.84,1.32-1.3,2.63.52,1.32,1.04,2.63,1.57,3.68-1.57.53-3.94-.79-4.2,1.06-1.58.52.78,4.2-1.84,3.67.52-1.58-.8-1.84-1.32-2.63-.79.79-.79,2.63-2.37,2.63-1.32-1.84,2.37-3.67-.79-3.94-.27-3.15,3.15-2.37,3.15-4.99,1.57-2.63,4.47-2.36,7.09-3.15v1.05Z"></path><path class="st32" d="M231.69,86.25c1.85-.53,6.05-.53,3.94,2.36-1.57-.53-1.83.53-2.62,1.05,1.05,2.63-1.84,2.63-2.1,4.2-3.68-4.73-4.2,3.15-8.14,2.1-1.32.79-1.05,2.37-2.9,2.37,1.05-1.32-.52-4.73,1.85-4.99.25-1.31-1.32-1.05-1.85-1.05-2.62-.26.8-1.57.27-2.63,1.32.53,1.32-.78,2.1-1.05-1.05-3.16,2.9-1.58,3.15-3.94,2.37,0,3.94,2.63,6.31,1.58"></path><path class="st18" d="M162.2,58.23c1.05.26,2.09,1.31,2.89,2.36-4.99-.78,1.57,6.05-3.15,3.42-1.84,0-1.84,2.1-2.63,3.15-.79.26-.79,1.05-1.84.79.53-2.37-3.68-1.84-1.32-4.2-1.05-.79-2.1,0-3.15-.53.53-.79.53-3.41.53-4.2.79-.79,1.05-1.84,2.62-1.31.79,1.05,2.63.27,3.68,1.31,1.57.52.78-1.58,2.37-.79"></path><path class="st11" d="M150.93,140.75c-.92.18-1.84-.18-2.57.18.56,2.02,3.13,2.21,2.77,4.79-1.29-.55-2.59-.92-3.87-1.47-.74,1.47,1.1,6.62-1.47,4.41-.74-1.29-1.65-2.39-1.47-4.41-.92.55-1.1,1.84-1.65,2.75-1.1.18-.74,1.65-2.02,2.02-.92-2.2.92-3.68.36-6.25-.74-.37-1.65-.19-2.57-.19.38-3.31,3.68-2.76,5.88-4.05,2.77-.18,5.52,0,6.62,2.21"></path><path class="st23" d="M241.63,106.14c0,.79-.53,1.58.25,2.1,1.58.52,1.32,2.63,2.11,3.94,0,1.31-3.42,1.31-1.32,2.89,0,3.16-2.1,3.68-3.94,4.99-.8-1.31-3.95.53-3.17-2.36-2.09.53-.25-2.11-1.57-2.37.79-2.89.79-6.04,2.1-8.41,2.63,1.05,3.15-4.99,4.47-.79h1.05Z"></path><path class="st33" d="M150.74,161.6h-7.31v-8.76h7.31v8.76ZM142.57,161.6h-7.3v-8.76h7.3v8.76ZM142.57,171.34h-7.3v-8.76h7.3v8.76ZM150.76,171.34h-7.3v-8.76h7.3v8.76ZM215.17,161.17h-7.31v-8.76h7.31v8.76ZM207.02,161.17h-7.31v-8.76h7.31v8.76ZM207.02,170.9h-7.31v-8.76h7.31v8.76ZM215.21,170.9h-7.3v-8.76h7.3v8.76Z"></path><path class="st6" d="M138.68,83.9c3.15-.79,6.3,0,8.41,1.84-.27,1.58-2.1,1.05-3.15,1.58-.79-.27-.79-.79-1.83-.53,1.57,2.63-.8,4.99-.27,8.15-1.84.52-.53-1.84-2.89-1.84-.27-.52-.8-1.32-1.06-1.84-3.41.79-1.31,6.31-4.99,6.83-.25,1.31-1.57,2.63-2.89,2.89.27-1.84-.52-4.46.79-5.78-3.94-1.31-4.2,4.2-7.88,3.68,2.1-3.42,4.46-6.3,7.09-9.2-.52-1.05-4.2.79-2.37-1.58,2.9-2.36,6.84-3.15,11.04-4.2"></path><path class="st24" d="M185.21,128.53c1.26,1.26,3.78.63,3.78,2.95-.42.84-2.31,0-3.15.63,0,2.1,2.32,2.31,1.47,5.04-2.1-.42-3.15-1.89-4.83-2.73-.22,1.89-.42,3.57-1.69,4.2-.63-1.9-.83-4.42-2.31-5.68,0,1.26-1.05,1.48-2.31,1.69.21-2.32.63-4.63,3.15-5.47,0-1.26,2.73-.42,2.52-2.31,1.26.42,6.51-1.26,3.36,1.68"></path><path class="st30" d="M211.39,65.73c-.53.79-2.37,0-3.42.79,0,1.84,0,3.41-.52,5-1.58,0-2.12-2.11-3.42-2.11-1.32,2.89-3.15,5.26-5.52,7.1.27-1.32-.53-3.68.79-4.46-1.32-.27-2.37.26-3.15,1.31.52,1.84-1.57.53-2.1,1.32-.52-2.11,1.84-2.37,2.1-4.2,1.83.52.78-1.58,1.83-2.11-.25-.26-.78-.26-1.05-.26,1.58-3.41,6.32-3.95,9.72-4.47,1.58.79,3.69.79,4.74,2.1"></path><path class="st14" d="M180.12,67.73c-1.85.27-1.85,2.1-2.63,3.16.79,1.58,3.15,0,3.94,1.31.53.79,1.85.79,1.85,2.36-2.37-.52-2.9,1.84-4.74,1.58-3.15,1.32,1.32,4.2,1.05,7.1,1.05.26,0,2.1.79,2.89-1.57.79-1.3-1.32-3.15-.53-3.15.78-2.1-4.47-4.72-2.63,1.57,3.42,0,7.36-.79,10.51-2.1,0-.53-2.62-1.32-3.68-1.58-1.31,0-4.73-2.37-5.52-.79.52-1.05,1.58-2.37,1.58-1.32-3.95,2.1-4.73,1.84-7.88,1.06-1.32,3.42-1.58,2.11-3.94,1.83.52.25-1.57,1.57-1.84,2.37-2.63,5.26-3.42,7.62-5.52,1.05-.26,1.57,0,1.32,1.05"></path><path class="st26" d="M200.74,105.18c1.32,1.58,5.39-.53,5.39,2.23.65,0,.92.53,1.18.92.27.66-.4.66-.53.92.93,1.05.66,2.76,1.32,3.94-.65.13-1.7,0-1.7-.79-.13-.13-.27-.13-.4-.13-.4.79,1.32,2.63-.4,2.89-.25.13-.12.53-.12.92-1.58.13-1.97-1.97-3.15-2.49.13-1.44-.53-2.1-.8-3.15-1.17-.39-1.44.65-2.62.26,0-1.7-.66-2.63,0-4.2-.66-.52-1.71-.39-1.58-1.44.53-.4.4-1.84,1.85-1.31.25.91,1.3.79,1.57,1.44"></path><path class="st25" d="M57.33,273.16s38.09-8.28,89.44-15.01c51.33-6.72,115.98-11.91,169.09-5.69l-.22,1.88c-52.86-6.19-117.33-1.03-168.61,5.69-51.27,6.72-89.3,14.98-89.3,14.98l-.4-1.85Z"></path><path class="st32" d="M67.75,152.44c-.76-5.48-.46-10.96-.62-16.44h.76c-.3,5.64.77,11.26-.14,16.44"></path><path class="st32" d="M66.37,199.79h-2.28c.3-20.56.62-41.11,1.06-61.81-.3-.76.77-.76,1.22-.61v62.42Z"></path><path class="st32" d="M60.14,199.49c.76-2.43.3-5.64.45-8.07-.14-.45-.3-1.07-.45-1.52.14-.6.14-1.37.3-1.98.14-.3.3-.6.46-.91.45-15.68,1.37-31.52,1.37-46.89v-.76c.46,0,.92-.91,1.22,0-.3,19.95,0,40.19-.3,60.14-.46.91-1.83.31-3.04,0"></path><path class="st32" d="M80.43,141.81c-3.14,3.41-4.7,4.55-7.05,3.98,1.57-3.41,3.14-3.41,7.05-3.98"></path><path class="st32" d="M50.69,145.59c2.9,3.2,6.85,5.79,9.45,9.14.3,1.06-.31,1.98-1.08.91-2.89-3.04-6.23-5.48-9.28-8.52.15-.62-.31-2.13.91-1.53"></path><path class="st32" d="M72.92,146.2c-1.61,4.32-2.4,7.78-4.22,9.08-1.2-5.18,2.21-4.75,2.82-9.08h1.4Z"></path><path class="st32" d="M67.75,159.45c.6,6.09.3,11.72,1.06,17.2v5.79c-.46,6.09.3,11.57.3,17.05-.6-.46-1.22.61-1.67-.31.3-12.93-.31-25.57-.16-38.51.16-.46.3-.76.46-1.22"></path><path class="st6" d="M79.92,184.11c-.46-.3-.3-.91.16-1.37,0,.46,0,.91-.16,1.37"></path><path class="st10" d="M59.22,110.12c-.16-.46-.6-.91-.76-1.36,1.06-2.13-.16-4.12-.3-6.1-1.52-3.5-5.64-4.72-9.45-4.57,0,2.43-.76,5.18,0,7.61.16,2.13,2.6,2.59,3.66,3.96.92.31,1.67.92,3.04.92-1.06-1.22-2.28-2.29-2.28-3.35-1.52-.3-3.2-.91-3.35-2.74-.76-2.29,1.97-.46,3.19-.92,1.06.76,1.22,1.98,1.98,3.05-.46.14-1.06.3-1.52.6.46.76,1.52.76,2.44.61.46,1.06,1.21,1.82.46,3.19,0,.76.91.76,1.36,1.22,1.82,1.22,1.68-1.06,1.52-2.13M49.78,102.2c-.92-2.28,1.67-1.82,1.97-.3,0,1.22-1.21,0-1.97.3M54.49,102.36c-.91,0-1.67-1.22-2.13-1.98.46-1.22,1.98.15,2.58.76-.14.46.3,1.22-.46,1.22M56.17,103.73c1.36.45,1.22,2.74,1.52,3.96-1.36-1.37-2.14-2.59-1.52-3.96"></path><path class="st27" d="M79.77,184.26c-.3,5.18-.6,10.5-.91,15.68h-7.16c-.61-4.26,1.53-7.46,2.44-11.27.6,0,.46.92.46,1.38-.31.91.92,1.06.92,1.67-.16.46-.31.77-.46,1.07.15,1.22-.46,3.2.46,3.5,1.06-1.98,1.82-4.11,1.97-6.4.61-.15.31-.76.46-1.22.61-1.52,1.22-2.89,1.83-4.41"></path><path class="st27" d="M79.92,184.11l-.16.16.16-.16Z"></path><path class="st27" d="M44.76,188.83c1.52.61,2.59,1.82,3.35,3.04,1.82,1.83,2.89,4.41,5.02,6.09.61-.76-.46-1.82,0-2.89-.16-1.36-1.52-3.04-.16-3.81,1.68,2.74,3.04,5.33,3.96,8.53-3.96,1.06-8.83,0-12.94.91h-2.74c-.46-1.22-2.28-1.83-1.98-3.35,1.22-.15,1.68,1.07,2.89,1.22.46-1.52-.3-2.89,0-4.41.16-.45.62-.15.92,0,.76.76,1.22,2.28,2.14,3.04,1.21-1.21,0-3.04-.31-4.57.31-1.22-.14-1.37-.14-1.83v-1.98Z"></path><path class="st22" d="M105.5,132.8c-.91-.16-1.82-.3-2.74-.46-1.21-.91-2.13.46-3.49,0-.46.3-.76.46-1.22.76h-1.06c-2.28,1.52-4.88,2.28-6.1,4.72,1.84.31,3.04,1.98,4.72,2.59,4.87,1.68,10.51.46,14.32-2.59,0-2.43-2.44-3.96-4.42-5.02M94.24,137.82c-.31-.3-.31-.76.14-1.06,0-.46.16-.91.16-1.21.91-.31,1.68-.92,3.35-1.22-.91,1.82-1.82,1.67-2.44,2.43.62.15,1.22.3,1.84.61.6.61,1.67,1.21,1.67,2.13-1.67.31-3.8-.3-4.71-1.67M99.41,134.33c.92-.77,2.14-1.07,3.35-.91-.14.61-.3,1.21-.6,1.82-.92,0-2.74.31-2.74-.91M101.23,139.5c-1.06-.14-1.21-1.37-1.52-2.13,1.38,0,2.44-.91,3.96-.61.92.31.3,1.68,1.52,1.22-.3,1.52-2.58,1.21-3.96,1.52M104.59,135.69c-.76.31-.76-.6-.76-1.06,0-1.67,1.98-.76,2.58-.3.9,1.67-1.38.45-1.82,1.36"></path><path class="st22" d="M49.47,132.5c.16.91-.3,1.52-.91,2.12-.46-.3-.62-.76-.76-1.21v-1.83c-.3-1.21-1.52-1.98-2.74-2.28-.62,1.37-1.82,2.59-1.82,4.11-.32,3.96,1.82,7.16,5.33,8.68.46-.46,1.22-1.08,1.06-1.83.6-1.82,1.37-3.5,1.98-5.33,1.22-1.38-.92-1.07-2.14-2.43M45.36,131.13c.76.61,1.68,1.67,1.38,3.04-.77.31-1.22-.3-1.98-.14-.16-1.07,0-2.13.6-2.89M46.28,138.58c-.46-1.06-1.84-1.83-1.22-3.35.91-.15,1.68.45,1.98.91-.46.92,1.21,3.2-.76,2.43M49.78,136.91c0,.76-.46,1.22-1.08,1.53-.14-.92-.76-2.75,1.52-3.2-.14.61-.3,1.22-.45,1.67"></path><path class="st27" d="M57.84,192.33c.92.92.46,1.83.92,2.59,0,1.52.46,3.04,1.06,4.57-.14.76-.76.46-1.21.46-.92-2.28-1.53-5.02-.77-7.62"></path><path class="st27" d="M84.49,195.07c.3,1.22.16,3.2.16,4.72-1.38.15-3.5.45-4.57-.16.91-2.58,1.97-5.48,3.81-7.31.45.77-.16,1.98.6,2.74"></path><path class="st27" d="M89.67,195.99c-.92.91,0,2.43-.76,3.5-.92-.16-1.68.91-2.9.46.3-1.98,1.98-3.96,3.04-5.64,1.06-.15.3,1.07.62,1.68"></path><path class="st10" d="M41.1,132.8c.16-.76-1.21-.76-.3-1.22-.91-3.5-2.28-8.07-6.71-9.59h-1.67c-1.06-1.06-2.9-.91-4.57-.91.14.76.14,1.53.14,2.28-.3.61,0,1.21-.14,1.83,1.06,6.09,7.61,9.44,12.64,11.27,2.13.15-.16-2.29.6-3.65M36.07,126.1c1.68-.3,1.84,1.37,2.44,2.28.3,1.07-.92,1.38-1.38.31-.45-.75-1.37-1.36-1.06-2.58M32.88,122.9c1.36-.46,1.52.92,2.28,1.07,0,.46.15.91-.16,1.22-1.52-.92-2.28-1.37-2.13-2.29M28.92,122.44c1.22-.45,1.68,1.07,2.44,1.38,0,1.06-1.52.15-1.84,1.06-.45-.45-.76-.91-1.06-1.52l.46-.92ZM29.84,126.56c0-.3-.46-.61-.31-1.06,1.38.15,3.04-.46,3.66.45-.46,1.07-2.14.46-3.35.61M30.74,128.24c1.68-.16,3.96-.91,5.18.6.76,1.68-1.38.61-1.98.92-.92-.92-3.5.61-3.2-1.52M38.35,134.17c-1.22-.76-2.43-1.21-3.65-1.83-.16-.3-.76-.76-.3-1.06,2.28-.31,4.25.15,5.03,2.43.46.91-.77.31-1.08.45"></path><path class="st22" d="M79.62,139.66c-.16.14-.16.3-.3.45.14-.15.14-.31.3-.45"></path><path class="st2" d="M102.45,148.48c-.46-.6-.91-1.07-1.36-1.67-.46-1.37-1.22-2.59-2.14-3.04-1.22-1.98-3.96-2.28-6.09-3.2h-1.67c0,.91.76.61,1.21,1.36-.91.31-1.52.92-2.58.61-1.67-.3-3.19-1.36-4.57-2.13.6-.76,1.52,0,2.28,0h3.2c-.62-1.37-3.04-1.06-3.66-2.43,2.14-.76,4.12-2.13,5.94-3.81,2.74-3.35,5.48-6.39,5.48-10.96h-2.14c-.3.15-.76.46-1.06.61-2.59-1.38-4.87.3-7.01,1.21-.46.46-.91,1.07-1.36,1.52-.46.31-.76.77-1.22,1.07.46,0,.76,0,1.52-.76.92.15,1.22-.31,1.83-.31.46,2.89-2.13,3.2-3.81,5.49-.15-.15-.3-.31-.46-.46v-3.04c-.46-.16-.6.46-1.22.15-1.97,1.83-2.58,4.26-3.8,6.4-.15,1.52-.15,3.04-.15,4.57,2.74.6,2.58,3.95,4.71,5.48,3.66,5.48,9.59,5.94,15.38,5.94,1.07-.76,4.12-.16,2.74-2.59M98.04,145.59c1.06-.45,1.82.31,1.82,1.37-1.22-.76-2.44-.46-1.82-1.37M97.28,143.77c.15,1.06-1.06,1.06-1.68,1.37-1.06-.15-2.28-1.07-2.89-1.83,1.52-.61,3.35-.91,4.57.46M96.67,125.19c.76.91-.45,1.52-.3,2.43-.76.15-1.52.45-2.44.31-.3-1.53,1.84-1.99,2.74-2.74M90.73,125.65c.91-.76,1.67-.91,2.74-1.37h1.37c-1.37,1.83-2.59,2.74-3.96,3.2-.3-.46-.14-1.22-.14-1.83M91.19,129.15c1.21.3,4.57-1.07,3.5,1.22-.92,2.28-3.66.91-5.49,1.21-.62-1.37,1.52-1.21,1.98-2.43M87.23,132.8c1.52,0,3.05-.16,4.41.15,0,.91-1.06,1.67-1.82,1.98-1.36,0-2.74.15-4.11-.16,0-.91,1.06-1.36,1.52-1.97M81.14,136.61c-1.22-2.28,4.57-8.98,2.59-1.83-1.36,0-.92,2.13-2.59,1.83M82.67,138.58c-.3-.91.6-1.67.9-2.59,1.08.15,2.44-.31,3.36.46-.92,1.37-2.74,1.98-4.26,2.13M86.17,145.14c-1.06-.92-2.44-1.99-1.84-3.5.92.46,1.84.76,2.6,1.67-.3.61.6,2.28-.76,1.83M89.82,148.02c-2.28-.3-1.22-2.74-1.52-4.26,1.22-.31,1.98.45,2.74.61-.16,1.21,1.36,5.48-1.22,3.65M93.78,149.55c-2.58.31-1.06-2.58-1.68-3.96,2.14-.31,3.04,1.53,3.66,3.04.76,1.68-1.22.61-1.98.91M100.02,149.39c-1.08,0-3.04.76-3.04-1.06,0-1.21,1.67-.31,2.28,0,.14.45.91.3.76,1.06"></path><path class="st2" d="M89.97,112.25c-.76.15-1.52.46-2.14.61-.45-.15-1.06-.15-1.82.15-2.13-.3-3.65.46-5.33.76-.6.3-1.06.76-1.68,1.07-1.21.14-2.28.76-2.89,1.21-1.98.61-2.89,4.57-4.42,1.83.31-2.74-.91-5.03-1.21-7.47.14-1.67-1.22-2.43-1.38-3.96-.76-1.52-1.22-3.8-3.04-4.26-3.5,2.29-3.5,6.25-5.17,9.29-.92,2.28-1.07,4.87-1.98,7-.62,0-.46-.76-.76-.91-1.08-3.2-4.12-4.87-6.85-6.7-.76-.15-1.52-.3-2.28-.46h-1.38c.46.31.92.46,1.38.77.91.3,1.67.76,2.43,1.06,1.52,1.37.3,3.35.3,5.03h-.45c-1.07-2.43-3.8-4.11-3.8-6.86-.46-.76-1.22-.91-1.84-1.06-.61.61-.61,1.67-.61,2.74-.61,6.09.3,11.42,4.41,16.14,2.74,3.35,6.4,4.57,10.51,4.57,4.27-2.74,7.61,1.82,12.03.45,8.07-.15,12.64-7.15,15.52-13.25.3-.76.46-1.52.62-2.28.91-1.37,1.52-2.89,2.43-4.11-.15-.46.62-1.83-.6-1.37M82.81,116.36c.46-1.83,1.22-2.43,3.2-2.59.3.15.62.15,1.06.3-1.36,1.22-2.58,2.28-3.8,3.5-.9.15-.46-.91-.46-1.22M76.58,116.82c.91-.15,1.52-1.07,2.43-1.22.62-.15,1.07-.3,1.68-.45.76,0,1.36,0,1.06.91-1.06,2.28-2.58,5.49-5.48,6.25-.14-1.68-.6-4.11.32-5.48M74.34,125.87c.39-.31.81-.6,1.17-.83,1.34.19,2.62.51,3.93.83M73.68,120.01c-.3-.76.46-.3.76-.45-.6,1.98,2.28,4.87-1.06,5.48-1.82.46-1.06-1.97-1.68-3.04.62-.6.76-1.68,1.98-1.98M53.59,114.53c1.52.15,2.43,1.52,3.19,2.74-.15,1.82-1.22,3.2-1.37,5.03-1.68.31-1.52-1.68-2.74-2.29.62-1.82.46-3.8.92-5.48M46.58,113.62c1.52.3,1.98,2.59,2.74,3.96-1.07.61-1.82-.46-2.74-.3-.62-1.07-.62-2.74,0-3.65M47.04,119.1c1.52-.15,2.74.76,4.26.61.45,1.52,2.43,1.98,2.28,3.65-1.98.15-4.27,0-6.09-.46-.46-1.21-.92-2.59-.46-3.81M56.25,125.87c1.74,2.59-3.08,2.12-4.49,2.82-.89-.9-1.8-1.8-2.33-2.82-.18-.36-.33-.74-.4-1.14,2.43-.46,4.27.6,6.69.46.22.24.4.46.53.67M54.49,130.37c.46-1.07,1.84-1.53,2.74-2.43,1.38.14,2.74,1.82,3.35,3.19-1.97.3-4.41.45-6.09-.76M61.08,125.87c.35.78.59,1.92.72,2.82-.14.46-.6.15-.91,0-.82-.89-2.34-1.75-3.33-2.82-.86-.92-1.34-2.01-.63-3.42.3-.6-.16-3.35,1.52-1.98.46,1.83,1.68,3.35,2.44,5.02.06.12.12.24.18.37M64.39,125.19c-2.28-1.83-4.71-4.57-3.49-8.23,1.36.15,2.13,1.68,3.19,2.43.3,1.68.76,3.96.3,5.79M64.24,117.43c-1.52-1.07-3.81-2.89-2.44-5.03,1.98-1.98,1.84,1.98,3.2,2.44-.3.91.6,2.74-.76,2.58M65,111.49c-.92.46-1.22-.46-1.68-.91-.3-1.82.46-3.35,1.22-4.88h.76c-.3,1.83,0,3.96-.3,5.79M66.07,112.25c.3-2.13.6-4.26.76-6.4,1.84.91,2.44,3.2,2.28,5.33,0,1.21-1.52,1.67-2.58,2.13-.76.45-.76-.61-.46-1.07M66.07,114.84c1.22-.77,2.9-2.44,3.96-1.22v2.43c-1.36.46-2.14,2.13-3.66,2.59.16-1.37-.91-2.59-.3-3.8M68.86,125.87c-.31.79-.67,1.57-1.11,2.37-.92.45-.62,1.52-1.68,1.36.25-1.15.17-2.44.05-3.73-.31-3.49-.94-7.03,3.61-8.14h.91c-.35,3.02-.79,5.6-1.78,8.14M71.09,124.73v1.82c-.3.61-.92.61-1.52.77,0-.46.09-1,.27-1.46.24-.63.65-1.13,1.26-1.13M75.66,130.97c-2.43.46-5.33,1.53-7.77.31.46-1.22,1.52-1.83,2.14-2.74,2.43.15,4.41.76,6.85.91.46.92-.62,1.07-1.22,1.52M79.44,125.87c.76.18,1.52.37,2.31.54.16,1.22-1.67,1.37-2.43,2.28-1.98-.45-4.12-.61-6.09-1.21,0-.56.51-1.12,1.11-1.61M84.65,123.36c-1.22,4.26-4.88.61-7.31.46.14-1.52,1.82-1.52,2.58-2.74,1.68.46,6.09-.61,4.72,2.28M87.39,117.73c-.46.76-.76,1.67-1.22,2.44-1.22-.46-3.36,0-3.5-1.07,1.82-1.21,3.35-3.04,5.33-3.65.6.76-.6,1.37-.6,2.28"></path><path class="st22" d="M79.16,98.7c-.3.76-1.37,0-1.68,1.52,1.06.91.92,2.14,1.38,3.05-.31.3-.62.76-.92.76,0-1.22-1.06-2.13-.46-3.81h-.14c-5.02,2.74-5.33,8.23-4.72,13.1,1.36.3,2.44-.31,3.65-.31.46-.46.92-.91,1.22-1.22-.6,0-1.37,0-2.13.16-1.82-2.89,5.17-3.35,2.13-.16,1.38-.3,2.44-1.97,2.74-3.19.16-.45.16-.76.3-1.22.92,0,.46-1.06,1.22-1.06,0-.61-.15-1.22-.15-1.68.91-1.06,1.06-2.43,1.37-3.65,2.44-3.5-2.28-1.68-3.81-2.28M73.83,110.27c-.6-.61-.3-2.13-.16-3.04.92-.15.6.76.92,1.22,0,.76.14,1.82-.76,1.82M76.26,107.22c-.3-.15-.45.31-.75.15-.16-1.52-.46-3.5.14-4.72,1.38.76.76,3.04.6,4.57M79.16,108.29c-.76-.3-1.22.31-1.98.16-.46-.91.92-1.07.76-1.83.76-.61,1.82.14,2.14.76l-.92.91ZM80.84,104.63c-.62.77-.92.77-1.22.77-.46-.46-.3-1.22.3-1.53.6,0,1.22,0,.92.76"></path><path class="st32" d="M304.89,155.04c-.76-5.48-.46-10.96-.6-16.45h.76c-.3,5.64.76,11.27-.16,16.45"></path><path class="st32" d="M303.53,202.38h-2.28c.3-20.55.6-41.11,1.06-61.81-.3-.76.76-.76,1.22-.61v62.42Z"></path><path class="st32" d="M297.28,202.08c.76-2.44.3-5.64.46-8.07-.16-.46-.3-1.07-.46-1.53.16-.6.16-1.37.3-1.98.16-.31.31-.61.46-.91.46-15.68,1.38-31.52,1.38-46.89v-.76c.45,0,.91-.91,1.21,0-.3,19.95,0,40.2-.3,60.14-.46.91-1.82.3-3.04,0"></path><path class="st32" d="M317.58,144.41c-3.13,3.41-4.7,4.55-7.04,3.98,1.56-3.42,3.13-3.42,7.04-3.98"></path><path class="st32" d="M287.85,148.19c2.89,3.2,6.85,5.78,9.43,9.13.3,1.07-.3,1.98-1.06.91-2.9-3.05-6.24-5.48-9.29-8.52.16-.61-.3-2.13.92-1.52"></path><path class="st32" d="M310.07,148.8c-1.61,4.32-2.41,7.78-4.22,9.07-1.21-5.18,2.21-4.75,2.8-9.07h1.41Z"></path><path class="st32" d="M304.89,162.04c.62,6.09.31,11.72,1.06,17.2v5.79c-.45,6.09.32,11.57.32,17.05-.62-.46-1.22.6-1.68-.31.3-12.94-.3-25.57-.16-38.52.16-.46.31-.76.46-1.22"></path><path class="st6" d="M317.08,186.71c-.46-.31-.31-.92.15-1.37,0,.45,0,.91-.15,1.37"></path><path class="st10" d="M296.36,112.71c-.14-.46-.6-.92-.75-1.37,1.06-2.13-.16-4.11-.31-6.1-1.52-3.5-5.63-4.72-9.43-4.57,0,2.43-.76,5.17,0,7.62.16,2.13,2.58,2.58,3.65,3.96.92.3,1.68.91,3.06.91-1.07-1.22-2.29-2.28-2.29-3.35-1.52-.3-3.19-.91-3.35-2.74-.76-2.29,1.98-.45,3.2-.91,1.06.76,1.22,1.98,1.98,3.05-.46.15-1.06.3-1.52.6.46.77,1.52.77,2.43.61.46,1.07,1.22,1.83.46,3.2,0,.76.92.76,1.38,1.22,1.82,1.21,1.67-1.07,1.51-2.13M286.93,104.79c-.91-2.28,1.68-1.82,1.98-.3,0,1.22-1.22,0-1.98.3M291.65,104.95c-.92,0-1.68-1.22-2.14-1.98.46-1.22,1.98.15,2.6.76-.16.46.3,1.22-.46,1.22M293.32,106.32c1.38.46,1.22,2.74,1.53,3.96-1.38-1.36-2.14-2.59-1.53-3.96"></path><path class="st27" d="M316.92,186.86c-.3,5.18-.62,10.5-.92,15.68h-7.15c-.6-4.26,1.52-7.46,2.44-11.27.6,0,.46.92.46,1.37-.32.91.9,1.06.9,1.67-.16.46-.3.76-.46,1.07.16,1.21-.45,3.2.46,3.5,1.06-1.99,1.83-4.11,1.98-6.4.6-.15.3-.76.46-1.22.6-1.52,1.21-2.89,1.82-4.42"></path><path class="st27" d="M317.08,186.71l-.16.15.16-.15Z"></path><path class="st27" d="M281.9,191.42c1.52.61,2.59,1.83,3.36,3.04,1.82,1.83,2.89,4.42,5.01,6.09.62-.75-.45-1.82,0-2.89-.14-1.36-1.52-3.04-.14-3.8,1.67,2.74,3.04,5.33,3.95,8.53-3.95,1.07-8.82,0-12.94.91h-2.74c-.45-1.21-2.28-1.83-1.97-3.35,1.21-.14,1.67,1.07,2.89,1.22.46-1.52-.3-2.89,0-4.41.15-.45.6-.15.92,0,.76.77,1.22,2.28,2.13,3.05,1.22-1.22,0-3.05-.3-4.57.3-1.21-.16-1.37-.16-1.83v-1.98Z"></path><path class="st22" d="M342.65,135.39c-.92-.15-1.83-.3-2.74-.45-1.22-.91-2.12.45-3.5,0-.46.3-.76.45-1.22.76h-1.06c-2.28,1.53-4.87,2.29-6.09,4.72,1.82.3,3.04,1.98,4.72,2.59,4.87,1.67,10.5.45,14.3-2.59,0-2.43-2.43-3.96-4.41-5.02M331.38,140.42c-.3-.31-.3-.77.16-1.07,0-.45.15-.91.15-1.21.92-.31,1.68-.91,3.36-1.22-.92,1.83-1.84,1.67-2.44,2.43.6.16,1.22.3,1.82.61.62.61,1.68,1.22,1.68,2.13-1.68.3-3.8-.31-4.72-1.67M336.56,136.92c.91-.76,2.13-1.06,3.35-.91-.16.61-.3,1.22-.6,1.82-.92,0-2.74.31-2.74-.91M338.39,142.09c-1.06-.15-1.22-1.37-1.52-2.13,1.37,0,2.44-.91,3.96-.61.91.31.3,1.68,1.52,1.22-.32,1.52-2.6,1.21-3.96,1.52M341.74,138.29c-.76.3-.76-.61-.76-1.06,0-1.67,1.98-.77,2.6-.31.91,1.67-1.38.46-1.84,1.37"></path><path class="st22" d="M286.63,135.09c.16.91-.3,1.52-.92,2.13-.45-.31-.6-.77-.76-1.22v-1.83c-.3-1.21-1.52-1.97-2.73-2.28-.62,1.36-1.84,2.58-1.84,4.11-.3,3.96,1.84,7.16,5.33,8.68.46-.46,1.22-1.07,1.07-1.83.6-1.82,1.36-3.5,1.97-5.33,1.22-1.37-.91-1.07-2.13-2.43M282.52,133.72c.76.61,1.67,1.67,1.36,3.04-.76.3-1.22-.31-1.98-.15-.14-1.07,0-2.13.62-2.89M283.42,141.18c-.46-1.07-1.83-1.83-1.21-3.35.91-.15,1.67.46,1.97.92-.46.91,1.22,3.19-.76,2.43M286.93,139.51c0,.76-.46,1.21-1.06,1.52-.16-.92-.76-2.74,1.52-3.2-.16.61-.3,1.22-.46,1.68"></path><path class="st27" d="M295,194.93c.92.91.46,1.82.92,2.59,0,1.51.45,3.04,1.06,4.57-.16.76-.76.45-1.22.45-.91-2.28-1.52-5.02-.76-7.61"></path><path class="st27" d="M321.65,197.66c.3,1.23.15,3.2.15,4.72-1.36.15-3.5.46-4.57-.16.92-2.59,1.98-5.48,3.81-7.3.46.76-.14,1.98.62,2.74"></path><path class="st27" d="M326.82,198.58c-.92.91,0,2.44-.76,3.5-.91-.16-1.67.91-2.89.45.3-1.98,1.98-3.96,3.04-5.63,1.06-.15.3,1.07.6,1.68"></path><path class="st10" d="M278.25,135.39c.14-.76-1.22-.76-.3-1.22-.92-3.5-2.28-8.06-6.7-9.59h-1.68c-1.06-1.06-2.89-.91-4.57-.91.16.76.16,1.53.16,2.28-.3.62,0,1.22-.16,1.83,1.08,6.09,7.61,9.44,12.64,11.26,2.14.15-.14-2.28.62-3.65M273.23,128.7c1.68-.3,1.82,1.37,2.44,2.28.3,1.06-.92,1.37-1.38.31-.46-.76-1.36-1.37-1.06-2.59M270.03,125.5c1.38-.45,1.52.92,2.28,1.07,0,.45.16.91-.15,1.21-1.52-.91-2.28-1.37-2.14-2.29M266.08,125.04c1.21-.46,1.67,1.07,2.43,1.37,0,1.07-1.52.16-1.82,1.07-.46-.46-.76-.91-1.06-1.53l.46-.91ZM266.98,129.16c0-.31-.46-.61-.3-1.07,1.36.15,3.04-.46,3.65.46-.45,1.07-2.13.46-3.35.61M267.9,130.83c1.67-.15,3.96-.91,5.17.61.76,1.67-1.36.6-1.97.91-.92-.91-3.5.61-3.2-1.52M275.51,136.77c-1.22-.76-2.44-1.22-3.65-1.82-.16-.31-.76-.77-.32-1.07,2.28-.31,4.26.16,5.03,2.43.46.92-.76.31-1.06.46"></path><path class="st22" d="M316.77,142.25c-.15.14-.15.3-.3.45.16-.15.16-.31.3-.45"></path><path class="st2" d="M339.61,151.07c-.46-.6-.92-1.06-1.38-1.67-.45-1.37-1.22-2.59-2.13-3.04-1.22-1.97-3.96-2.28-6.09-3.19h-1.68c0,.91.76.61,1.22,1.36-.92.31-1.52.92-2.59.62-1.68-.31-3.2-1.37-4.57-2.13.6-.76,1.52,0,2.28,0h3.19c-.6-1.37-3.04-1.07-3.65-2.44,2.13-.76,4.11-2.13,5.95-3.81,2.73-3.35,5.47-6.4,5.47-10.96h-2.12c-.32.15-.76.46-1.06.61-2.6-1.37-4.88.3-7.01,1.21-.46.46-.92,1.07-1.38,1.53-.46.3-.76.76-1.21,1.07.45,0,.75,0,1.52-.77.91.16,1.21-.3,1.83-.3.46,2.89-2.14,3.2-3.8,5.48-.16-.15-.32-.3-.46-.46v-3.04c-.46-.15-.62.46-1.22.16-1.98,1.82-2.59,4.26-3.81,6.39-.16,1.52-.16,3.04-.16,4.57,2.74.6,2.6,3.96,4.72,5.48,3.66,5.48,9.59,5.94,15.38,5.94,1.06-.76,4.11-.15,2.74-2.59M335.19,148.19c1.08-.46,1.82.3,1.82,1.37-1.21-.76-2.43-.45-1.82-1.37M334.43,146.36c.16,1.06-1.06,1.06-1.67,1.37-1.07-.15-2.28-1.06-2.9-1.83,1.52-.61,3.35-.91,4.57.46M333.82,127.78c.76.91-.46,1.52-.3,2.44-.76.15-1.52.45-2.44.3-.3-1.52,1.82-1.98,2.74-2.74M327.88,128.24c.92-.75,1.68-.91,2.74-1.36h1.38c-1.38,1.82-2.6,2.74-3.96,3.2-.3-.45-.16-1.22-.16-1.83M328.34,131.74c1.22.3,4.57-1.06,3.5,1.22-.92,2.28-3.65.91-5.48,1.21-.6-1.37,1.52-1.21,1.98-2.43M324.39,135.39c1.51,0,3.03-.15,4.41.16,0,.91-1.06,1.67-1.82,1.98-1.38,0-2.74.15-4.11-.15,0-.92,1.06-1.37,1.52-1.98M318.29,139.2c-1.21-2.28,4.58-8.98,2.6-1.82-1.38,0-.92,2.13-2.6,1.82M319.81,141.18c-.3-.92.62-1.67.92-2.59,1.06.16,2.44-.3,3.35.46-.91,1.37-2.74,1.98-4.26,2.13M323.31,147.73c-1.06-.92-2.43-1.98-1.82-3.5.92.46,1.82.76,2.58,1.67-.3.61.62,2.29-.76,1.83M326.97,150.62c-2.28-.31-1.22-2.74-1.52-4.26,1.22-.3,1.97.45,2.74.61-.16,1.22,1.36,5.48-1.22,3.65M330.92,152.14c-2.59.3-1.06-2.59-1.67-3.96,2.13-.31,3.04,1.52,3.65,3.05.76,1.67-1.22.61-1.98.91M337.17,151.99c-1.06,0-3.04.76-3.04-1.07,0-1.21,1.68-.3,2.28,0,.16.46.92.31.76,1.07"></path><path class="st2" d="M327.12,114.85c-.76.14-1.52.45-2.13.6-.46-.15-1.06-.15-1.83.15-2.14-.3-3.66.46-5.34.77-.6.3-1.06.76-1.67,1.06-1.22.15-2.28.76-2.9,1.21-1.97.61-2.89,4.57-4.41,1.83.3-2.74-.92-5.03-1.22-7.46.16-1.67-1.22-2.43-1.36-3.96-.76-1.52-1.22-3.81-3.05-4.27-3.5,2.29-3.5,6.25-5.18,9.29-.9,2.29-1.06,4.87-1.98,7-.6,0-.45-.76-.76-.91-1.06-3.2-4.11-4.88-6.85-6.7l-2.28-.45h-1.36c.46.3.91.45,1.36.76.92.3,1.68.76,2.44,1.07,1.52,1.36.3,3.35.3,5.02h-.46c-1.06-2.43-3.8-4.11-3.8-6.85-.46-.76-1.22-.91-1.82-1.07-.6.61-.6,1.68-.6,2.74-.62,6.09.3,11.42,4.41,16.14,2.74,3.35,6.39,4.57,10.51,4.57,4.25-2.74,7.61,1.83,12.02.46,8.07-.16,12.64-7.16,15.53-13.25.3-.76.46-1.52.61-2.28.92-1.37,1.52-2.89,2.44-4.11-.16-.45.6-1.83-.62-1.36M319.97,118.95c.46-1.83,1.22-2.44,3.2-2.59.3.14.6.14,1.06.3-1.36,1.21-2.58,2.28-3.8,3.5-.92.15-.46-.92-.46-1.22M313.72,119.41c.92-.15,1.52-1.06,2.44-1.21.6-.15,1.06-.31,1.67-.46.77,0,1.38,0,1.08.91-1.08,2.28-2.6,5.48-5.48,6.24-.16-1.68-.6-4.11.3-5.48M311.49,128.46c.39-.31.82-.59,1.17-.83,1.35.19,2.64.51,3.94.83M310.83,122.6c-.3-.76.46-.3.76-.45-.62,1.98,2.28,4.87-1.06,5.48-1.84.46-1.08-1.98-1.68-3.05.6-.6.76-1.67,1.98-1.98M290.73,117.12c1.52.15,2.44,1.52,3.2,2.74-.16,1.82-1.22,3.2-1.37,5.02-1.68.31-1.52-1.68-2.74-2.29.6-1.82.45-3.8.91-5.48M283.73,116.21c1.53.3,1.98,2.59,2.74,3.96-1.06.6-1.82-.46-2.74-.31-.6-1.06-.6-2.74,0-3.65M284.19,121.69c1.52-.14,2.74.76,4.26.61.46,1.52,2.44,1.98,2.28,3.65-1.98.16-4.27,0-6.09-.46-.46-1.22-.92-2.59-.46-3.81M293.4,128.46c1.73,2.59-3.08,2.12-4.49,2.83-.89-.9-1.8-1.81-2.33-2.83-.19-.36-.33-.74-.41-1.14,2.44-.45,4.27.61,6.71.46.22.25.4.47.53.68M291.65,132.96c.46-1.06,1.82-1.52,2.74-2.43,1.36.15,2.74,1.82,3.35,3.2-1.98.31-4.42.45-6.09-.76M298.23,128.46c.35.78.59,1.91.72,2.83-.16.45-.62.15-.92,0-.81-.9-2.33-1.76-3.33-2.83-.86-.92-1.33-2.01-.63-3.42.32-.61-.14-3.35,1.53-1.98.45,1.83,1.67,3.35,2.43,5.02.07.12.13.24.19.38M301.54,127.78c-2.28-1.83-4.72-4.57-3.5-8.22,1.38.15,2.14,1.67,3.2,2.43.3,1.67.76,3.96.3,5.79M301.39,120.02c-1.52-1.06-3.81-2.89-2.43-5.03,1.98-1.97,1.82,1.98,3.19,2.44-.3.91.62,2.74-.76,2.59M302.15,114.08c-.91.46-1.21-.45-1.67-.91-.3-1.82.46-3.35,1.22-4.87h.76c-.31,1.82,0,3.96-.31,5.78M303.22,114.85c.3-2.13.6-4.26.76-6.4,1.82.91,2.43,3.2,2.28,5.33,0,1.21-1.52,1.67-2.59,2.13-.77.46-.77-.61-.46-1.06M303.22,117.43c1.21-.76,2.89-2.44,3.95-1.22v2.43c-1.37.46-2.13,2.13-3.65,2.59.16-1.37-.92-2.59-.3-3.81M306,128.46c-.3.78-.67,1.58-1.11,2.37-.91.46-.6,1.52-1.67,1.37.24-1.15.17-2.45.05-3.74-.33-3.49-.96-7.03,3.6-8.14h.92c-.35,3.01-.78,5.59-1.79,8.13M308.25,127.32v1.83c-.31.61-.92.61-1.52.76,0-.45.07-.99.25-1.46.24-.63.65-1.13,1.27-1.13M312.82,133.56c-2.44.46-5.33,1.53-7.77.31.46-1.22,1.52-1.83,2.13-2.74,2.44.16,4.42.77,6.86.91.45.92-.62,1.07-1.22,1.52M316.6,128.46c.76.18,1.52.37,2.31.54.15,1.22-1.68,1.37-2.44,2.28-1.98-.46-4.11-.61-6.09-1.22,0-.55.51-1.12,1.11-1.6M321.79,125.95c-1.21,4.27-4.87.62-7.31.46.16-1.52,1.82-1.52,2.6-2.74,1.67.46,6.09-.61,4.71,2.28M324.53,120.32c-.46.76-.76,1.67-1.22,2.43-1.22-.46-3.35,0-3.5-1.07,1.84-1.21,3.36-3.04,5.34-3.65.6.76-.62,1.37-.62,2.28"></path><path class="st22" d="M316.31,101.29c-.3.76-1.36,0-1.67,1.52,1.06.91.91,2.13,1.36,3.04-.3.31-.6.77-.91.77,0-1.23-1.06-2.14-.46-3.81h-.16c-5.03,2.74-5.33,8.22-4.71,13.09,1.36.3,2.43-.31,3.65-.31.46-.45.92-.91,1.22-1.22-.6,0-1.38,0-2.14.16-1.82-2.89,5.18-3.35,2.14-.16,1.36-.3,2.44-1.98,2.74-3.19.15-.45.15-.76.3-1.21.92,0,.46-1.06,1.22-1.06,0-.61-.16-1.23-.16-1.68.92-1.06,1.06-2.44,1.38-3.65,2.43-3.5-2.3-1.67-3.82-2.28M310.98,112.86c-.6-.61-.3-2.13-.15-3.04.92-.15.6.77.92,1.22,0,.76.14,1.82-.77,1.82M313.42,109.82c-.3-.15-.46.31-.76.16-.16-1.52-.46-3.5.16-4.72,1.36.76.76,3.05.6,4.57M316.31,110.88c-.76-.3-1.21.3-1.97.15-.46-.91.9-1.06.76-1.82.76-.61,1.82.15,2.13.76l-.92.91ZM317.99,107.23c-.6.76-.91.76-1.22.76-.45-.46-.3-1.21.31-1.52.6,0,1.21,0,.91.76"></path></g><g class="st16"><text class="st8" transform="translate(58.69 247.1)"><tspan class="st13" x="0" y="0">FOUND</tspan><tspan class="st28" x="136.76" y="0">A</tspan><tspan class="st13" x="160.92" y="0">T</tspan><tspan class="st12" x="183.42" y="0">IO</tspan><tspan class="st21" x="227.24" y="0">N</tspan></text></g><path class="st4" d="M363.57,296.98c.15-1.04,1.27-2.28,2.74-2.28s2.09.97,1.95,2.28h-4.69ZM369.68,298.17l.07-.53c.28-2.01-.48-4.12-3.23-4.12-2.34,0-4.29,1.77-4.62,4.11-.33,2.33.97,4.11,3.45,4.11,1.5,0,2.72-.53,3.7-1.6l-1.01-.86c-.68.71-1.4,1.17-2.31,1.17-1.37,0-2.51-.91-2.31-2.28h6.27ZM347.62,301.53h1.48l.58-4.06c.25-1.76,1.32-2.57,2.39-2.57,1.44,0,1.5,1.06,1.29,2.54l-.58,4.09h1.49l.59-4.27c.2-1.39.91-2.36,2.34-2.36s1.52,1.09,1.35,2.28l-.61,4.36h1.48l.64-4.55c.25-1.75-.08-3.46-2.49-3.46-.94,0-2.03.49-2.67,1.45-.36-.96-1.09-1.45-2.24-1.45-1.4,0-2.49.96-2.71,1.42h-.03l.18-1.22h-1.39l-1.11,7.82ZM344.79,290.91c-.1.59.33,1.09.92,1.09s1.15-.49,1.25-1.09c.08-.59-.35-1.09-.94-1.09s-1.15.49-1.24,1.09M343.64,301.53h1.49l1.1-7.82h-1.48l-1.11,7.82ZM336.74,301.53h1.58l1.44-10.2h3.76l.21-1.49h-9.11l-.22,1.49h3.76l-1.44,10.2ZM326.05,297.77l-.07.49c-.15,1.06-.91,2.28-2.56,2.28-1.02,0-1.62-.38-1.5-1.27.18-1.25,1.93-1.5,3.33-1.5h.79ZM322.27,295.59c.59-.41,1.2-.89,2.34-.89,1.27,0,1.75.84,1.63,1.65l-.05.33h-1.09c-2.38,0-4.41.69-4.69,2.71-.21,1.52.92,2.34,2.38,2.34,1.19,0,2.15-.38,2.94-1.39h.03c-.05.4-.1.79-.12,1.19h1.32c.02-.41.05-.87.13-1.42l.56-3.99c.2-1.35-.59-2.61-2.9-2.61-1.09,0-2.33.38-3.27,1.15l.78.92ZM314.85,293.71h-2.13l.3-2.19h-1.49l-.3,2.19h-1.72l-.18,1.29h1.72l-.58,4.08c-.18,1.25-.35,2.66,1.95,2.66.3,0,1.01-.07,1.39-.26l.18-1.35c-.31.18-.74.23-1.09.23-1.12,0-.99-.92-.88-1.8l.51-3.55h2.13l.18-1.29ZM306.4,297.77l-.07.49c-.15,1.06-.91,2.28-2.56,2.28-1.02,0-1.62-.38-1.5-1.27.18-1.25,1.93-1.5,3.33-1.5h.79ZM302.62,295.59c.59-.41,1.2-.89,2.34-.89,1.27,0,1.75.84,1.63,1.65l-.05.33h-1.09c-2.38,0-4.4.69-4.69,2.71-.21,1.52.92,2.34,2.38,2.34,1.19,0,2.15-.38,2.94-1.39h.03c-.05.4-.1.79-.11,1.19h1.32c.02-.41.05-.87.13-1.42l.56-3.99c.2-1.35-.59-2.61-2.9-2.61-1.09,0-2.33.38-3.27,1.15l.78.92ZM292.16,301.53h1.48l1.75-12.47h-1.48l-1.75,12.47ZM282.28,297.62c-.31,2.28,1.25,4.11,3.58,4.11s4.42-1.83,4.74-4.11c.33-2.28-1.25-4.11-3.58-4.11s-4.41,1.83-4.74,4.11M283.86,297.62c.23-1.58,1.39-2.72,2.97-2.72s2.41,1.14,2.18,2.72c-.21,1.58-1.37,2.72-2.95,2.72s-2.41-1.14-2.19-2.72M272.34,297.62c-.31,2.28,1.25,4.11,3.58,4.11s4.42-1.83,4.73-4.11c.33-2.28-1.25-4.11-3.58-4.11s-4.41,1.83-4.74,4.11M273.93,297.62c.23-1.58,1.39-2.72,2.97-2.72s2.41,1.14,2.18,2.72c-.21,1.58-1.37,2.72-2.95,2.72s-2.41-1.14-2.2-2.72M262.87,301.53h1.49l.56-4.03c.26-1.82,1.32-2.61,2.56-2.61.94,0,1.7.54,1.48,2.01l-.64,4.62h1.48l.71-5.03c.3-2.08-.91-2.99-2.43-2.99-1.2,0-2.28.58-2.77,1.4h-.03l.83-5.86h-1.49l-1.75,12.47ZM262.46,294.77c-.66-.84-1.7-1.24-2.84-1.24-2.44,0-4.32,1.72-4.67,4.12-.33,2.41,1.11,4.07,3.51,4.07,1.14,0,2.24-.35,3.15-1.21l-.91-1.06c-.58.58-1.2.88-2.03.88-1.53,0-2.36-1.19-2.15-2.66.2-1.47,1.21-2.77,2.82-2.77.82,0,1.37.3,1.83.87l1.27-1.02ZM245.09,300.21c.64,1.11,2,1.62,3.5,1.62,2.24,0,4.26-1.35,4.57-3.61.59-4.21-5.41-2.44-5-5.4.1-.73.78-1.78,2.53-1.78.91,0,1.63.41,1.95,1.02l1.45-1.17c-.73-1.07-1.91-1.34-3.18-1.34-2.8,0-4.22,1.9-4.42,3.27-.64,4.55,5.36,2.89,4.98,5.58-.18,1.29-1.57,1.95-2.61,1.95-.94,0-1.86-.4-2.29-1.25l-1.47,1.12ZM233.22,296.98c.15-1.04,1.27-2.28,2.74-2.28s2.1.97,1.95,2.28h-4.69ZM239.33,298.17l.07-.53c.28-2.01-.48-4.12-3.23-4.12-2.34,0-4.29,1.77-4.62,4.11-.33,2.33.97,4.11,3.45,4.11,1.5,0,2.72-.53,3.7-1.6l-1.01-.86c-.68.71-1.4,1.17-2.31,1.17-1.37,0-2.51-.91-2.31-2.28h6.27ZM222.15,301.53h1.48l.56-4.03c.26-1.82,1.32-2.61,2.56-2.61.94,0,1.7.54,1.48,2.01l-.64,4.62h1.48l.71-5.03c.3-2.08-.91-2.99-2.43-2.99-1.2,0-2.28.58-2.77,1.4h-.03l.18-1.21h-1.49l-1.11,7.82ZM214.2,300.35c-2.67,0-4.11-2.1-3.74-4.65.36-2.56,2.38-4.65,5.05-4.65s4.12,2.1,3.76,4.65c-.36,2.56-2.39,4.65-5.07,4.65M213.98,301.83c3.56,0,6.47-2.67,6.96-6.14.48-3.46-1.67-6.14-5.23-6.14s-6.47,2.67-6.95,6.14c-.49,3.46,1.65,6.14,5.21,6.14M201.53,299.65h-1.6l-1.72,4.06h1.35l1.96-4.06ZM189.55,301.53h1.48l.56-4.03c.26-1.82,1.32-2.61,2.56-2.61.94,0,1.7.54,1.48,2.01l-.64,4.62h1.48l.71-5.03c.3-2.08-.91-2.99-2.43-2.99-1.2,0-2.28.58-2.77,1.4h-.03l.18-1.21h-1.49l-1.11,7.82ZM179.78,297.62c-.31,2.28,1.25,4.11,3.58,4.11s4.42-1.83,4.74-4.11c.33-2.28-1.25-4.11-3.58-4.11s-4.4,1.83-4.74,4.11M181.36,297.62c.23-1.58,1.39-2.72,2.97-2.72s2.41,1.14,2.18,2.72c-.21,1.58-1.37,2.72-2.95,2.72s-2.41-1.14-2.19-2.72M176.79,290.91c-.1.59.33,1.09.92,1.09s1.16-.49,1.25-1.09c.08-.59-.35-1.09-.94-1.09s-1.16.49-1.24,1.09M175.64,301.53h1.48l1.11-7.82h-1.49l-1.11,7.82ZM174.58,293.71h-2.13l.3-2.19h-1.48l-.3,2.19h-1.72l-.18,1.29h1.72l-.58,4.08c-.18,1.25-.35,2.66,1.95,2.66.3,0,1.01-.07,1.39-.26l.18-1.35c-.31.18-.74.23-1.09.23-1.12,0-.99-.92-.87-1.8l.51-3.55h2.13l.18-1.29ZM166.13,297.77l-.07.49c-.15,1.06-.91,2.28-2.56,2.28-1.02,0-1.62-.38-1.5-1.27.18-1.25,1.93-1.5,3.33-1.5h.79ZM162.36,295.59c.59-.41,1.2-.89,2.34-.89,1.27,0,1.75.84,1.63,1.65l-.05.33h-1.09c-2.38,0-4.41.69-4.69,2.71-.22,1.52.92,2.34,2.38,2.34,1.19,0,2.15-.38,2.94-1.39h.03c-.05.4-.1.79-.12,1.19h1.32c.02-.41.05-.87.13-1.42l.56-3.99c.2-1.35-.59-2.61-2.9-2.61-1.09,0-2.33.38-3.27,1.15l.78.92ZM160.18,294.77c-.66-.84-1.7-1.24-2.84-1.24-2.44,0-4.32,1.72-4.67,4.12-.33,2.41,1.11,4.07,3.52,4.07,1.14,0,2.24-.35,3.15-1.21l-.91-1.06c-.58.58-1.2.88-2.03.88-1.53,0-2.36-1.19-2.15-2.66.2-1.47,1.21-2.77,2.82-2.77.83,0,1.37.3,1.83.87l1.27-1.02ZM151.23,293.71h-1.48l-.58,4.03c-.25,1.82-1.3,2.61-2.54,2.61-.94,0-1.7-.54-1.5-2.01l.66-4.62h-1.48l-.71,5.03c-.3,2.08.89,2.99,2.41,2.99,1.21,0,2.28-.58,2.77-1.4h.03l-.17,1.2h1.48l1.11-7.82ZM136.93,300.35c-1.58,0-2.41-1.14-2.2-2.72.23-1.58,1.39-2.72,2.97-2.72s2.41,1.14,2.18,2.72c-.21,1.58-1.37,2.72-2.95,2.72M142.57,289.06h-1.49l-.81,5.77h-.03c-.41-.81-1.42-1.32-2.54-1.32-2.41,0-4.22,1.77-4.55,4.11-.31,2.31.97,4.11,3.4,4.11,1.06,0,2.21-.48,2.92-1.32h.03l-.16,1.12h1.48l1.75-12.47ZM123.15,301.53h7.84l.21-1.49h-6.25l.53-3.74h5.54l.2-1.49h-5.54l.49-3.48h5.96l.21-1.49h-7.54l-1.65,11.68ZM111.98,301.58l-.66,1.24c-.41.78-.76,1.29-1.7,1.29-.3,0-.59-.07-.86-.18l-.38,1.35c.4.16.84.21,1.29.21,1.63,0,2.28-.92,3-2.28l5.05-9.5h-1.6l-3.07,6.1h-.03l-1.47-6.1h-1.72l2.15,7.87ZM108.73,293.71h-2.13l.3-2.19h-1.49l-.3,2.19h-1.72l-.18,1.29h1.72l-.58,4.08c-.18,1.25-.35,2.66,1.95,2.66.3,0,1.01-.07,1.39-.26l.18-1.35c-.31.18-.74.23-1.09.23-1.12,0-.99-.92-.87-1.8l.51-3.55h2.13l.18-1.29ZM100.61,290.91c-.1.59.33,1.09.92,1.09s1.15-.49,1.25-1.09c.08-.59-.35-1.09-.94-1.09s-1.15.49-1.24,1.09M99.46,301.53h1.49l1.11-7.82h-1.48l-1.11,7.82ZM95.37,301.53h1.48l1.75-12.47h-1.48l-1.75,12.47ZM92.1,297.77l-.07.49c-.15,1.06-.91,2.28-2.56,2.28-1.02,0-1.62-.38-1.5-1.27.18-1.25,1.93-1.5,3.33-1.5h.79ZM88.32,295.59c.59-.41,1.21-.89,2.34-.89,1.27,0,1.75.84,1.63,1.65l-.05.33h-1.09c-2.38,0-4.4.69-4.69,2.71-.21,1.52.92,2.34,2.38,2.34,1.19,0,2.14-.38,2.94-1.39h.03c-.05.4-.1.79-.11,1.19h1.32c.02-.41.05-.87.13-1.42l.56-3.99c.2-1.35-.59-2.61-2.9-2.61-1.09,0-2.33.38-3.27,1.15l.77.92ZM85.28,293.71h-1.48l-.58,4.03c-.25,1.82-1.3,2.61-2.54,2.61-.94,0-1.7-.54-1.5-2.01l.66-4.62h-1.49l-.71,5.03c-.3,2.08.89,2.99,2.41,2.99,1.2,0,2.28-.58,2.77-1.4h.03l-.17,1.2h1.49l1.1-7.82ZM69.25,300.05c-2.54,0-4.03-2.06-3.66-4.62.35-2.43,2.48-4.39,4.92-4.39s4.06,1.95,3.71,4.42c-.36,2.56-2.41,4.59-4.97,4.59M76.03,300.15h-3.46v-.03c1.85-.79,3.05-2.74,3.33-4.72.48-3.33-1.85-5.84-5.13-5.84s-6.4,2.57-6.88,6.01c-.49,3.48,1.9,5.97,5.21,5.97h6.73l.2-1.39ZM53.18,294.9c1.58,0,2.41,1.14,2.18,2.72-.21,1.58-1.35,2.62-2.94,2.62s-2.43-1.04-2.21-2.62c.23-1.58,1.39-2.72,2.97-2.72M57.4,293.71h-1.49l-.17,1.12h-.03c-.46-.84-1.49-1.32-2.54-1.32-2.43,0-4.22,1.8-4.55,4.11-.33,2.28,1.12,4.01,3.42,4.01,1.07,0,2.21-.44,2.9-1.39h.05l-.17,1.15c-.18,1.32-.99,2.71-3.2,2.71-1.14,0-1.95-.45-2.61-1.27l-1.19,1.25c.97,1.02,2.14,1.4,3.63,1.4,2.56,0,4.5-1.67,4.85-4.03l1.09-7.76ZM39.15,301.53h1.49l.56-4.03c.26-1.82,1.32-2.61,2.56-2.61.94,0,1.7.54,1.49,2.01l-.64,4.62h1.49l.71-5.03c.3-2.08-.91-2.99-2.42-2.99-1.21,0-2.28.58-2.77,1.4h-.03l.18-1.21h-1.49l-1.11,7.82ZM36.33,290.91c-.1.59.33,1.09.92,1.09s1.15-.49,1.25-1.09c.08-.59-.35-1.09-.94-1.09s-1.15.49-1.24,1.09M35.17,301.53h1.48l1.11-7.82h-1.49l-1.11,7.82ZM28.92,301.53h1.63l4.17-7.82h-1.58l-3.09,5.99-1.5-5.99h-1.72l2.08,7.82ZM23.86,290.91c-.1.59.33,1.09.92,1.09s1.15-.49,1.25-1.09c.08-.59-.35-1.09-.94-1.09s-1.15.49-1.24,1.09M22.7,301.53h1.48l1.11-7.82h-1.49l-1.11,7.82ZM16.35,301.53h1.49l.54-3.93c.25-1.72,1.15-2.51,2.61-2.51.23,0,.46.05.71.12l.28-1.6c-.18-.07-.41-.1-.64-.1-.97,0-2.05.58-2.54,1.4h-.03l.18-1.21h-1.49l-1.1,7.82ZM7.13,291.34h2.38c3.79,0,4.16,2.87,3.96,4.36-.41,2.89-2.89,4.36-5.56,4.36h-2l1.22-8.71ZM4.11,301.53h3.81c4.17,0,6.8-2.85,7.23-5.84.3-2.16-.38-5.84-5.31-5.84h-4.08l-1.65,11.68Z"></path></svg>